<?xml version="1.0" encoding="utf-8" standalone="no"?>
<!DOCTYPE svg PUBLIC "-//W3C//DTD SVG 1.1//EN"
  "http://www.w3.org/Graphics/SVG/1.1/DTD/svg11.dtd">
<svg xmlns:xlink="http://www.w3.org/1999/xlink" width="460.8pt" height="345.6pt" viewBox="0 0 460.8 345.6" xmlns="http://www.w3.org/2000/svg" version="1.1">
 <metadata>
  <rdf:RDF xmlns:dc="http://purl.org/dc/elements/1.1/" xmlns:cc="http://creativecommons.org/ns#" xmlns:rdf="http://www.w3.org/1999/02/22-rdf-syntax-ns#">
   <cc:Work>
    <dc:type rdf:resource="http://purl.org/dc/dcmitype/StillImage"/>
    <dc:date>2022-12-04T21:38:45.293685</dc:date>
    <dc:format>image/svg+xml</dc:format>
    <dc:creator>
     <cc:Agent>
      <dc:title>Matplotlib v3.5.3, https://matplotlib.org/</dc:title>
     </cc:Agent>
    </dc:creator>
   </cc:Work>
  </rdf:RDF>
 </metadata>
 <defs>
  <style type="text/css">*{stroke-linejoin: round; stroke-linecap: butt}</style>
 </defs>
 <g id="figure_1">
  <g id="patch_1">
   <path d="M 0 345.6 
L 460.8 345.6 
L 460.8 0 
L 0 0 
z
" style="fill: #ffffff"/>
  </g>
  <g id="axes_1">
   <g id="patch_2">
    <path d="M 57.6 307.584 
L 414.72 307.584 
L 414.72 41.472 
L 57.6 41.472 
z
" style="fill: #ffffff"/>
   </g>
   <g id="patch_3">
    <path d="M 73.832727 307.584 
L 74.983985 307.584 
L 74.983985 307.492571 
L 73.832727 307.492571 
z
" clip-path="url(#p7010bb4773)" style="fill: #1f77b4"/>
   </g>
   <g id="patch_4">
    <path d="M 74.983985 307.584 
L 76.135242 307.584 
L 76.135242 307.584 
L 74.983985 307.584 
z
" clip-path="url(#p7010bb4773)" style="fill: #1f77b4"/>
   </g>
   <g id="patch_5">
    <path d="M 76.135242 307.584 
L 77.286499 307.584 
L 77.286499 307.584 
L 76.135242 307.584 
z
" clip-path="url(#p7010bb4773)" style="fill: #1f77b4"/>
   </g>
   <g id="patch_6">
    <path d="M 77.286499 307.584 
L 78.437756 307.584 
L 78.437756 307.584 
L 77.286499 307.584 
z
" clip-path="url(#p7010bb4773)" style="fill: #1f77b4"/>
   </g>
   <g id="patch_7">
    <path d="M 78.437756 307.584 
L 79.589014 307.584 
L 79.589014 307.584 
L 78.437756 307.584 
z
" clip-path="url(#p7010bb4773)" style="fill: #1f77b4"/>
   </g>
   <g id="patch_8">
    <path d="M 79.589014 307.584 
L 80.740271 307.584 
L 80.740271 307.584 
L 79.589014 307.584 
z
" clip-path="url(#p7010bb4773)" style="fill: #1f77b4"/>
   </g>
   <g id="patch_9">
    <path d="M 80.740271 307.584 
L 81.891528 307.584 
L 81.891528 307.584 
L 80.740271 307.584 
z
" clip-path="url(#p7010bb4773)" style="fill: #1f77b4"/>
   </g>
   <g id="patch_10">
    <path d="M 81.891528 307.584 
L 83.042785 307.584 
L 83.042785 307.584 
L 81.891528 307.584 
z
" clip-path="url(#p7010bb4773)" style="fill: #1f77b4"/>
   </g>
   <g id="patch_11">
    <path d="M 83.042785 307.584 
L 84.194043 307.584 
L 84.194043 307.584 
L 83.042785 307.584 
z
" clip-path="url(#p7010bb4773)" style="fill: #1f77b4"/>
   </g>
   <g id="patch_12">
    <path d="M 84.194043 307.584 
L 85.3453 307.584 
L 85.3453 307.584 
L 84.194043 307.584 
z
" clip-path="url(#p7010bb4773)" style="fill: #1f77b4"/>
   </g>
   <g id="patch_13">
    <path d="M 85.3453 307.584 
L 86.496557 307.584 
L 86.496557 307.584 
L 85.3453 307.584 
z
" clip-path="url(#p7010bb4773)" style="fill: #1f77b4"/>
   </g>
   <g id="patch_14">
    <path d="M 86.496557 307.584 
L 87.647814 307.584 
L 87.647814 307.584 
L 86.496557 307.584 
z
" clip-path="url(#p7010bb4773)" style="fill: #1f77b4"/>
   </g>
   <g id="patch_15">
    <path d="M 87.647814 307.584 
L 88.799072 307.584 
L 88.799072 307.584 
L 87.647814 307.584 
z
" clip-path="url(#p7010bb4773)" style="fill: #1f77b4"/>
   </g>
   <g id="patch_16">
    <path d="M 88.799072 307.584 
L 89.950329 307.584 
L 89.950329 307.584 
L 88.799072 307.584 
z
" clip-path="url(#p7010bb4773)" style="fill: #1f77b4"/>
   </g>
   <g id="patch_17">
    <path d="M 89.950329 307.584 
L 91.101586 307.584 
L 91.101586 307.584 
L 89.950329 307.584 
z
" clip-path="url(#p7010bb4773)" style="fill: #1f77b4"/>
   </g>
   <g id="patch_18">
    <path d="M 91.101586 307.584 
L 92.252843 307.584 
L 92.252843 307.584 
L 91.101586 307.584 
z
" clip-path="url(#p7010bb4773)" style="fill: #1f77b4"/>
   </g>
   <g id="patch_19">
    <path d="M 92.252843 307.584 
L 93.404101 307.584 
L 93.404101 307.584 
L 92.252843 307.584 
z
" clip-path="url(#p7010bb4773)" style="fill: #1f77b4"/>
   </g>
   <g id="patch_20">
    <path d="M 93.404101 307.584 
L 94.555358 307.584 
L 94.555358 307.584 
L 93.404101 307.584 
z
" clip-path="url(#p7010bb4773)" style="fill: #1f77b4"/>
   </g>
   <g id="patch_21">
    <path d="M 94.555358 307.584 
L 95.706615 307.584 
L 95.706615 307.584 
L 94.555358 307.584 
z
" clip-path="url(#p7010bb4773)" style="fill: #1f77b4"/>
   </g>
   <g id="patch_22">
    <path d="M 95.706615 307.584 
L 96.857872 307.584 
L 96.857872 307.584 
L 95.706615 307.584 
z
" clip-path="url(#p7010bb4773)" style="fill: #1f77b4"/>
   </g>
   <g id="patch_23">
    <path d="M 96.857872 307.584 
L 98.00913 307.584 
L 98.00913 307.584 
L 96.857872 307.584 
z
" clip-path="url(#p7010bb4773)" style="fill: #1f77b4"/>
   </g>
   <g id="patch_24">
    <path d="M 98.00913 307.584 
L 99.160387 307.584 
L 99.160387 307.584 
L 98.00913 307.584 
z
" clip-path="url(#p7010bb4773)" style="fill: #1f77b4"/>
   </g>
   <g id="patch_25">
    <path d="M 99.160387 307.584 
L 100.311644 307.584 
L 100.311644 307.584 
L 99.160387 307.584 
z
" clip-path="url(#p7010bb4773)" style="fill: #1f77b4"/>
   </g>
   <g id="patch_26">
    <path d="M 100.311644 307.584 
L 101.462901 307.584 
L 101.462901 307.584 
L 100.311644 307.584 
z
" clip-path="url(#p7010bb4773)" style="fill: #1f77b4"/>
   </g>
   <g id="patch_27">
    <path d="M 101.462901 307.584 
L 102.614159 307.584 
L 102.614159 307.584 
L 101.462901 307.584 
z
" clip-path="url(#p7010bb4773)" style="fill: #1f77b4"/>
   </g>
   <g id="patch_28">
    <path d="M 102.614159 307.584 
L 103.765416 307.584 
L 103.765416 307.584 
L 102.614159 307.584 
z
" clip-path="url(#p7010bb4773)" style="fill: #1f77b4"/>
   </g>
   <g id="patch_29">
    <path d="M 103.765416 307.584 
L 104.916673 307.584 
L 104.916673 307.584 
L 103.765416 307.584 
z
" clip-path="url(#p7010bb4773)" style="fill: #1f77b4"/>
   </g>
   <g id="patch_30">
    <path d="M 104.916673 307.584 
L 106.06793 307.584 
L 106.06793 307.584 
L 104.916673 307.584 
z
" clip-path="url(#p7010bb4773)" style="fill: #1f77b4"/>
   </g>
   <g id="patch_31">
    <path d="M 106.06793 307.584 
L 107.219188 307.584 
L 107.219188 307.584 
L 106.06793 307.584 
z
" clip-path="url(#p7010bb4773)" style="fill: #1f77b4"/>
   </g>
   <g id="patch_32">
    <path d="M 107.219188 307.584 
L 108.370445 307.584 
L 108.370445 307.584 
L 107.219188 307.584 
z
" clip-path="url(#p7010bb4773)" style="fill: #1f77b4"/>
   </g>
   <g id="patch_33">
    <path d="M 108.370445 307.584 
L 109.521702 307.584 
L 109.521702 307.584 
L 108.370445 307.584 
z
" clip-path="url(#p7010bb4773)" style="fill: #1f77b4"/>
   </g>
   <g id="patch_34">
    <path d="M 109.521702 307.584 
L 110.672959 307.584 
L 110.672959 307.584 
L 109.521702 307.584 
z
" clip-path="url(#p7010bb4773)" style="fill: #1f77b4"/>
   </g>
   <g id="patch_35">
    <path d="M 110.672959 307.584 
L 111.824217 307.584 
L 111.824217 307.584 
L 110.672959 307.584 
z
" clip-path="url(#p7010bb4773)" style="fill: #1f77b4"/>
   </g>
   <g id="patch_36">
    <path d="M 111.824217 307.584 
L 112.975474 307.584 
L 112.975474 307.584 
L 111.824217 307.584 
z
" clip-path="url(#p7010bb4773)" style="fill: #1f77b4"/>
   </g>
   <g id="patch_37">
    <path d="M 112.975474 307.584 
L 114.126731 307.584 
L 114.126731 280.246857 
L 112.975474 280.246857 
z
" clip-path="url(#p7010bb4773)" style="fill: #1f77b4"/>
   </g>
   <g id="patch_38">
    <path d="M 114.126731 307.584 
L 115.277988 307.584 
L 115.277988 307.584 
L 114.126731 307.584 
z
" clip-path="url(#p7010bb4773)" style="fill: #1f77b4"/>
   </g>
   <g id="patch_39">
    <path d="M 115.277988 307.584 
L 116.429246 307.584 
L 116.429246 307.584 
L 115.277988 307.584 
z
" clip-path="url(#p7010bb4773)" style="fill: #1f77b4"/>
   </g>
   <g id="patch_40">
    <path d="M 116.429246 307.584 
L 117.580503 307.584 
L 117.580503 307.584 
L 116.429246 307.584 
z
" clip-path="url(#p7010bb4773)" style="fill: #1f77b4"/>
   </g>
   <g id="patch_41">
    <path d="M 117.580503 307.584 
L 118.73176 307.584 
L 118.73176 307.584 
L 117.580503 307.584 
z
" clip-path="url(#p7010bb4773)" style="fill: #1f77b4"/>
   </g>
   <g id="patch_42">
    <path d="M 118.73176 307.584 
L 119.883017 307.584 
L 119.883017 307.584 
L 118.73176 307.584 
z
" clip-path="url(#p7010bb4773)" style="fill: #1f77b4"/>
   </g>
   <g id="patch_43">
    <path d="M 119.883017 307.584 
L 121.034275 307.584 
L 121.034275 307.584 
L 119.883017 307.584 
z
" clip-path="url(#p7010bb4773)" style="fill: #1f77b4"/>
   </g>
   <g id="patch_44">
    <path d="M 121.034275 307.584 
L 122.185532 307.584 
L 122.185532 307.584 
L 121.034275 307.584 
z
" clip-path="url(#p7010bb4773)" style="fill: #1f77b4"/>
   </g>
   <g id="patch_45">
    <path d="M 122.185532 307.584 
L 123.336789 307.584 
L 123.336789 307.584 
L 122.185532 307.584 
z
" clip-path="url(#p7010bb4773)" style="fill: #1f77b4"/>
   </g>
   <g id="patch_46">
    <path d="M 123.336789 307.584 
L 124.488046 307.584 
L 124.488046 307.584 
L 123.336789 307.584 
z
" clip-path="url(#p7010bb4773)" style="fill: #1f77b4"/>
   </g>
   <g id="patch_47">
    <path d="M 124.488046 307.584 
L 125.639304 307.584 
L 125.639304 307.584 
L 124.488046 307.584 
z
" clip-path="url(#p7010bb4773)" style="fill: #1f77b4"/>
   </g>
   <g id="patch_48">
    <path d="M 125.639304 307.584 
L 126.790561 307.584 
L 126.790561 307.584 
L 125.639304 307.584 
z
" clip-path="url(#p7010bb4773)" style="fill: #1f77b4"/>
   </g>
   <g id="patch_49">
    <path d="M 126.790561 307.584 
L 127.941818 307.584 
L 127.941818 307.584 
L 126.790561 307.584 
z
" clip-path="url(#p7010bb4773)" style="fill: #1f77b4"/>
   </g>
   <g id="patch_50">
    <path d="M 127.941818 307.584 
L 129.093075 307.584 
L 129.093075 307.584 
L 127.941818 307.584 
z
" clip-path="url(#p7010bb4773)" style="fill: #1f77b4"/>
   </g>
   <g id="patch_51">
    <path d="M 129.093075 307.584 
L 130.244333 307.584 
L 130.244333 307.584 
L 129.093075 307.584 
z
" clip-path="url(#p7010bb4773)" style="fill: #1f77b4"/>
   </g>
   <g id="patch_52">
    <path d="M 130.244333 307.584 
L 131.39559 307.584 
L 131.39559 307.584 
L 130.244333 307.584 
z
" clip-path="url(#p7010bb4773)" style="fill: #1f77b4"/>
   </g>
   <g id="patch_53">
    <path d="M 131.39559 307.584 
L 132.546847 307.584 
L 132.546847 307.584 
L 131.39559 307.584 
z
" clip-path="url(#p7010bb4773)" style="fill: #1f77b4"/>
   </g>
   <g id="patch_54">
    <path d="M 132.546847 307.584 
L 133.698104 307.584 
L 133.698104 307.584 
L 132.546847 307.584 
z
" clip-path="url(#p7010bb4773)" style="fill: #1f77b4"/>
   </g>
   <g id="patch_55">
    <path d="M 133.698104 307.584 
L 134.849362 307.584 
L 134.849362 307.584 
L 133.698104 307.584 
z
" clip-path="url(#p7010bb4773)" style="fill: #1f77b4"/>
   </g>
   <g id="patch_56">
    <path d="M 134.849362 307.584 
L 136.000619 307.584 
L 136.000619 307.584 
L 134.849362 307.584 
z
" clip-path="url(#p7010bb4773)" style="fill: #1f77b4"/>
   </g>
   <g id="patch_57">
    <path d="M 136.000619 307.584 
L 137.151876 307.584 
L 137.151876 307.584 
L 136.000619 307.584 
z
" clip-path="url(#p7010bb4773)" style="fill: #1f77b4"/>
   </g>
   <g id="patch_58">
    <path d="M 137.151876 307.584 
L 138.303133 307.584 
L 138.303133 307.584 
L 137.151876 307.584 
z
" clip-path="url(#p7010bb4773)" style="fill: #1f77b4"/>
   </g>
   <g id="patch_59">
    <path d="M 138.303133 307.584 
L 139.454391 307.584 
L 139.454391 307.584 
L 138.303133 307.584 
z
" clip-path="url(#p7010bb4773)" style="fill: #1f77b4"/>
   </g>
   <g id="patch_60">
    <path d="M 139.454391 307.584 
L 140.605648 307.584 
L 140.605648 307.584 
L 139.454391 307.584 
z
" clip-path="url(#p7010bb4773)" style="fill: #1f77b4"/>
   </g>
   <g id="patch_61">
    <path d="M 140.605648 307.584 
L 141.756905 307.584 
L 141.756905 307.584 
L 140.605648 307.584 
z
" clip-path="url(#p7010bb4773)" style="fill: #1f77b4"/>
   </g>
   <g id="patch_62">
    <path d="M 141.756905 307.584 
L 142.908162 307.584 
L 142.908162 307.584 
L 141.756905 307.584 
z
" clip-path="url(#p7010bb4773)" style="fill: #1f77b4"/>
   </g>
   <g id="patch_63">
    <path d="M 142.908162 307.584 
L 144.05942 307.584 
L 144.05942 307.584 
L 142.908162 307.584 
z
" clip-path="url(#p7010bb4773)" style="fill: #1f77b4"/>
   </g>
   <g id="patch_64">
    <path d="M 144.05942 307.584 
L 145.210677 307.584 
L 145.210677 307.584 
L 144.05942 307.584 
z
" clip-path="url(#p7010bb4773)" style="fill: #1f77b4"/>
   </g>
   <g id="patch_65">
    <path d="M 145.210677 307.584 
L 146.361934 307.584 
L 146.361934 307.584 
L 145.210677 307.584 
z
" clip-path="url(#p7010bb4773)" style="fill: #1f77b4"/>
   </g>
   <g id="patch_66">
    <path d="M 146.361934 307.584 
L 147.513191 307.584 
L 147.513191 307.584 
L 146.361934 307.584 
z
" clip-path="url(#p7010bb4773)" style="fill: #1f77b4"/>
   </g>
   <g id="patch_67">
    <path d="M 147.513191 307.584 
L 148.664449 307.584 
L 148.664449 307.584 
L 147.513191 307.584 
z
" clip-path="url(#p7010bb4773)" style="fill: #1f77b4"/>
   </g>
   <g id="patch_68">
    <path d="M 148.664449 307.584 
L 149.815706 307.584 
L 149.815706 307.584 
L 148.664449 307.584 
z
" clip-path="url(#p7010bb4773)" style="fill: #1f77b4"/>
   </g>
   <g id="patch_69">
    <path d="M 149.815706 307.584 
L 150.966963 307.584 
L 150.966963 307.584 
L 149.815706 307.584 
z
" clip-path="url(#p7010bb4773)" style="fill: #1f77b4"/>
   </g>
   <g id="patch_70">
    <path d="M 150.966963 307.584 
L 152.118221 307.584 
L 152.118221 307.584 
L 150.966963 307.584 
z
" clip-path="url(#p7010bb4773)" style="fill: #1f77b4"/>
   </g>
   <g id="patch_71">
    <path d="M 152.118221 307.584 
L 153.269478 307.584 
L 153.269478 307.584 
L 152.118221 307.584 
z
" clip-path="url(#p7010bb4773)" style="fill: #1f77b4"/>
   </g>
   <g id="patch_72">
    <path d="M 153.269478 307.584 
L 154.420735 307.584 
L 154.420735 307.584 
L 153.269478 307.584 
z
" clip-path="url(#p7010bb4773)" style="fill: #1f77b4"/>
   </g>
   <g id="patch_73">
    <path d="M 154.420735 307.584 
L 155.571992 307.584 
L 155.571992 307.584 
L 154.420735 307.584 
z
" clip-path="url(#p7010bb4773)" style="fill: #1f77b4"/>
   </g>
   <g id="patch_74">
    <path d="M 155.571992 307.584 
L 156.72325 307.584 
L 156.72325 307.584 
L 155.571992 307.584 
z
" clip-path="url(#p7010bb4773)" style="fill: #1f77b4"/>
   </g>
   <g id="patch_75">
    <path d="M 156.72325 307.584 
L 157.874507 307.584 
L 157.874507 307.584 
L 156.72325 307.584 
z
" clip-path="url(#p7010bb4773)" style="fill: #1f77b4"/>
   </g>
   <g id="patch_76">
    <path d="M 157.874507 307.584 
L 159.025764 307.584 
L 159.025764 307.584 
L 157.874507 307.584 
z
" clip-path="url(#p7010bb4773)" style="fill: #1f77b4"/>
   </g>
   <g id="patch_77">
    <path d="M 159.025764 307.584 
L 160.177021 307.584 
L 160.177021 307.584 
L 159.025764 307.584 
z
" clip-path="url(#p7010bb4773)" style="fill: #1f77b4"/>
   </g>
   <g id="patch_78">
    <path d="M 160.177021 307.584 
L 161.328279 307.584 
L 161.328279 307.584 
L 160.177021 307.584 
z
" clip-path="url(#p7010bb4773)" style="fill: #1f77b4"/>
   </g>
   <g id="patch_79">
    <path d="M 161.328279 307.584 
L 162.479536 307.584 
L 162.479536 307.584 
L 161.328279 307.584 
z
" clip-path="url(#p7010bb4773)" style="fill: #1f77b4"/>
   </g>
   <g id="patch_80">
    <path d="M 162.479536 307.584 
L 163.630793 307.584 
L 163.630793 307.584 
L 162.479536 307.584 
z
" clip-path="url(#p7010bb4773)" style="fill: #1f77b4"/>
   </g>
   <g id="patch_81">
    <path d="M 163.630793 307.584 
L 164.78205 307.584 
L 164.78205 307.584 
L 163.630793 307.584 
z
" clip-path="url(#p7010bb4773)" style="fill: #1f77b4"/>
   </g>
   <g id="patch_82">
    <path d="M 164.78205 307.584 
L 165.933308 307.584 
L 165.933308 307.584 
L 164.78205 307.584 
z
" clip-path="url(#p7010bb4773)" style="fill: #1f77b4"/>
   </g>
   <g id="patch_83">
    <path d="M 165.933308 307.584 
L 167.084565 307.584 
L 167.084565 307.584 
L 165.933308 307.584 
z
" clip-path="url(#p7010bb4773)" style="fill: #1f77b4"/>
   </g>
   <g id="patch_84">
    <path d="M 167.084565 307.584 
L 168.235822 307.584 
L 168.235822 307.584 
L 167.084565 307.584 
z
" clip-path="url(#p7010bb4773)" style="fill: #1f77b4"/>
   </g>
   <g id="patch_85">
    <path d="M 168.235822 307.584 
L 169.387079 307.584 
L 169.387079 307.584 
L 168.235822 307.584 
z
" clip-path="url(#p7010bb4773)" style="fill: #1f77b4"/>
   </g>
   <g id="patch_86">
    <path d="M 169.387079 307.584 
L 170.538337 307.584 
L 170.538337 307.584 
L 169.387079 307.584 
z
" clip-path="url(#p7010bb4773)" style="fill: #1f77b4"/>
   </g>
   <g id="patch_87">
    <path d="M 170.538337 307.584 
L 171.689594 307.584 
L 171.689594 307.492571 
L 170.538337 307.492571 
z
" clip-path="url(#p7010bb4773)" style="fill: #1f77b4"/>
   </g>
   <g id="patch_88">
    <path d="M 171.689594 307.584 
L 172.840851 307.584 
L 172.840851 307.584 
L 171.689594 307.584 
z
" clip-path="url(#p7010bb4773)" style="fill: #1f77b4"/>
   </g>
   <g id="patch_89">
    <path d="M 172.840851 307.584 
L 173.992108 307.584 
L 173.992108 224.384 
L 172.840851 224.384 
z
" clip-path="url(#p7010bb4773)" style="fill: #1f77b4"/>
   </g>
   <g id="patch_90">
    <path d="M 173.992108 307.584 
L 175.143366 307.584 
L 175.143366 307.584 
L 173.992108 307.584 
z
" clip-path="url(#p7010bb4773)" style="fill: #1f77b4"/>
   </g>
   <g id="patch_91">
    <path d="M 175.143366 307.584 
L 176.294623 307.584 
L 176.294623 307.584 
L 175.143366 307.584 
z
" clip-path="url(#p7010bb4773)" style="fill: #1f77b4"/>
   </g>
   <g id="patch_92">
    <path d="M 176.294623 307.584 
L 177.44588 307.584 
L 177.44588 307.584 
L 176.294623 307.584 
z
" clip-path="url(#p7010bb4773)" style="fill: #1f77b4"/>
   </g>
   <g id="patch_93">
    <path d="M 177.44588 307.584 
L 178.597137 307.584 
L 178.597137 307.584 
L 177.44588 307.584 
z
" clip-path="url(#p7010bb4773)" style="fill: #1f77b4"/>
   </g>
   <g id="patch_94">
    <path d="M 178.597137 307.584 
L 179.748395 307.584 
L 179.748395 307.584 
L 178.597137 307.584 
z
" clip-path="url(#p7010bb4773)" style="fill: #1f77b4"/>
   </g>
   <g id="patch_95">
    <path d="M 179.748395 307.584 
L 180.899652 307.584 
L 180.899652 103.515429 
L 179.748395 103.515429 
z
" clip-path="url(#p7010bb4773)" style="fill: #1f77b4"/>
   </g>
   <g id="patch_96">
    <path d="M 180.899652 307.584 
L 182.050909 307.584 
L 182.050909 307.584 
L 180.899652 307.584 
z
" clip-path="url(#p7010bb4773)" style="fill: #1f77b4"/>
   </g>
   <g id="patch_97">
    <path d="M 182.050909 307.584 
L 183.202166 307.584 
L 183.202166 307.584 
L 182.050909 307.584 
z
" clip-path="url(#p7010bb4773)" style="fill: #1f77b4"/>
   </g>
   <g id="patch_98">
    <path d="M 183.202166 307.584 
L 184.353424 307.584 
L 184.353424 307.584 
L 183.202166 307.584 
z
" clip-path="url(#p7010bb4773)" style="fill: #1f77b4"/>
   </g>
   <g id="patch_99">
    <path d="M 184.353424 307.584 
L 185.504681 307.584 
L 185.504681 307.584 
L 184.353424 307.584 
z
" clip-path="url(#p7010bb4773)" style="fill: #1f77b4"/>
   </g>
   <g id="patch_100">
    <path d="M 185.504681 307.584 
L 186.655938 307.584 
L 186.655938 307.584 
L 185.504681 307.584 
z
" clip-path="url(#p7010bb4773)" style="fill: #1f77b4"/>
   </g>
   <g id="patch_101">
    <path d="M 186.655938 307.584 
L 187.807195 307.584 
L 187.807195 307.584 
L 186.655938 307.584 
z
" clip-path="url(#p7010bb4773)" style="fill: #1f77b4"/>
   </g>
   <g id="patch_102">
    <path d="M 187.807195 307.584 
L 188.958453 307.584 
L 188.958453 307.584 
L 187.807195 307.584 
z
" clip-path="url(#p7010bb4773)" style="fill: #1f77b4"/>
   </g>
   <g id="patch_103">
    <path d="M 188.958453 307.584 
L 190.10971 307.584 
L 190.10971 307.584 
L 188.958453 307.584 
z
" clip-path="url(#p7010bb4773)" style="fill: #1f77b4"/>
   </g>
   <g id="patch_104">
    <path d="M 190.10971 307.584 
L 191.260967 307.584 
L 191.260967 307.584 
L 190.10971 307.584 
z
" clip-path="url(#p7010bb4773)" style="fill: #1f77b4"/>
   </g>
   <g id="patch_105">
    <path d="M 191.260967 307.584 
L 192.412224 307.584 
L 192.412224 307.584 
L 191.260967 307.584 
z
" clip-path="url(#p7010bb4773)" style="fill: #1f77b4"/>
   </g>
   <g id="patch_106">
    <path d="M 192.412224 307.584 
L 193.563482 307.584 
L 193.563482 307.584 
L 192.412224 307.584 
z
" clip-path="url(#p7010bb4773)" style="fill: #1f77b4"/>
   </g>
   <g id="patch_107">
    <path d="M 193.563482 307.584 
L 194.714739 307.584 
L 194.714739 307.584 
L 193.563482 307.584 
z
" clip-path="url(#p7010bb4773)" style="fill: #1f77b4"/>
   </g>
   <g id="patch_108">
    <path d="M 194.714739 307.584 
L 195.865996 307.584 
L 195.865996 307.584 
L 194.714739 307.584 
z
" clip-path="url(#p7010bb4773)" style="fill: #1f77b4"/>
   </g>
   <g id="patch_109">
    <path d="M 195.865996 307.584 
L 197.017253 307.584 
L 197.017253 307.584 
L 195.865996 307.584 
z
" clip-path="url(#p7010bb4773)" style="fill: #1f77b4"/>
   </g>
   <g id="patch_110">
    <path d="M 197.017253 307.584 
L 198.168511 307.584 
L 198.168511 307.584 
L 197.017253 307.584 
z
" clip-path="url(#p7010bb4773)" style="fill: #1f77b4"/>
   </g>
   <g id="patch_111">
    <path d="M 198.168511 307.584 
L 199.319768 307.584 
L 199.319768 307.584 
L 198.168511 307.584 
z
" clip-path="url(#p7010bb4773)" style="fill: #1f77b4"/>
   </g>
   <g id="patch_112">
    <path d="M 199.319768 307.584 
L 200.471025 307.584 
L 200.471025 307.584 
L 199.319768 307.584 
z
" clip-path="url(#p7010bb4773)" style="fill: #1f77b4"/>
   </g>
   <g id="patch_113">
    <path d="M 200.471025 307.584 
L 201.622282 307.584 
L 201.622282 307.584 
L 200.471025 307.584 
z
" clip-path="url(#p7010bb4773)" style="fill: #1f77b4"/>
   </g>
   <g id="patch_114">
    <path d="M 201.622282 307.584 
L 202.77354 307.584 
L 202.77354 307.584 
L 201.622282 307.584 
z
" clip-path="url(#p7010bb4773)" style="fill: #1f77b4"/>
   </g>
   <g id="patch_115">
    <path d="M 202.77354 307.584 
L 203.924797 307.584 
L 203.924797 307.584 
L 202.77354 307.584 
z
" clip-path="url(#p7010bb4773)" style="fill: #1f77b4"/>
   </g>
   <g id="patch_116">
    <path d="M 203.924797 307.584 
L 205.076054 307.584 
L 205.076054 307.584 
L 203.924797 307.584 
z
" clip-path="url(#p7010bb4773)" style="fill: #1f77b4"/>
   </g>
   <g id="patch_117">
    <path d="M 205.076054 307.584 
L 206.227311 307.584 
L 206.227311 307.584 
L 205.076054 307.584 
z
" clip-path="url(#p7010bb4773)" style="fill: #1f77b4"/>
   </g>
   <g id="patch_118">
    <path d="M 206.227311 307.584 
L 207.378569 307.584 
L 207.378569 307.584 
L 206.227311 307.584 
z
" clip-path="url(#p7010bb4773)" style="fill: #1f77b4"/>
   </g>
   <g id="patch_119">
    <path d="M 207.378569 307.584 
L 208.529826 307.584 
L 208.529826 307.584 
L 207.378569 307.584 
z
" clip-path="url(#p7010bb4773)" style="fill: #1f77b4"/>
   </g>
   <g id="patch_120">
    <path d="M 208.529826 307.584 
L 209.681083 307.584 
L 209.681083 307.584 
L 208.529826 307.584 
z
" clip-path="url(#p7010bb4773)" style="fill: #1f77b4"/>
   </g>
   <g id="patch_121">
    <path d="M 209.681083 307.584 
L 210.83234 307.584 
L 210.83234 307.584 
L 209.681083 307.584 
z
" clip-path="url(#p7010bb4773)" style="fill: #1f77b4"/>
   </g>
   <g id="patch_122">
    <path d="M 210.83234 307.584 
L 211.983598 307.584 
L 211.983598 307.584 
L 210.83234 307.584 
z
" clip-path="url(#p7010bb4773)" style="fill: #1f77b4"/>
   </g>
   <g id="patch_123">
    <path d="M 211.983598 307.584 
L 213.134855 307.584 
L 213.134855 307.584 
L 211.983598 307.584 
z
" clip-path="url(#p7010bb4773)" style="fill: #1f77b4"/>
   </g>
   <g id="patch_124">
    <path d="M 213.134855 307.584 
L 214.286112 307.584 
L 214.286112 307.584 
L 213.134855 307.584 
z
" clip-path="url(#p7010bb4773)" style="fill: #1f77b4"/>
   </g>
   <g id="patch_125">
    <path d="M 214.286112 307.584 
L 215.437369 307.584 
L 215.437369 307.584 
L 214.286112 307.584 
z
" clip-path="url(#p7010bb4773)" style="fill: #1f77b4"/>
   </g>
   <g id="patch_126">
    <path d="M 215.437369 307.584 
L 216.588627 307.584 
L 216.588627 307.584 
L 215.437369 307.584 
z
" clip-path="url(#p7010bb4773)" style="fill: #1f77b4"/>
   </g>
   <g id="patch_127">
    <path d="M 216.588627 307.584 
L 217.739884 307.584 
L 217.739884 307.584 
L 216.588627 307.584 
z
" clip-path="url(#p7010bb4773)" style="fill: #1f77b4"/>
   </g>
   <g id="patch_128">
    <path d="M 217.739884 307.584 
L 218.891141 307.584 
L 218.891141 307.584 
L 217.739884 307.584 
z
" clip-path="url(#p7010bb4773)" style="fill: #1f77b4"/>
   </g>
   <g id="patch_129">
    <path d="M 218.891141 307.584 
L 220.042398 307.584 
L 220.042398 307.584 
L 218.891141 307.584 
z
" clip-path="url(#p7010bb4773)" style="fill: #1f77b4"/>
   </g>
   <g id="patch_130">
    <path d="M 220.042398 307.584 
L 221.193656 307.584 
L 221.193656 307.492571 
L 220.042398 307.492571 
z
" clip-path="url(#p7010bb4773)" style="fill: #1f77b4"/>
   </g>
   <g id="patch_131">
    <path d="M 221.193656 307.584 
L 222.344913 307.584 
L 222.344913 304.841143 
L 221.193656 304.841143 
z
" clip-path="url(#p7010bb4773)" style="fill: #1f77b4"/>
   </g>
   <g id="patch_132">
    <path d="M 222.344913 307.584 
L 223.49617 307.584 
L 223.49617 54.144 
L 222.344913 54.144 
z
" clip-path="url(#p7010bb4773)" style="fill: #1f77b4"/>
   </g>
   <g id="patch_133">
    <path d="M 223.49617 307.584 
L 224.647427 307.584 
L 224.647427 307.584 
L 223.49617 307.584 
z
" clip-path="url(#p7010bb4773)" style="fill: #1f77b4"/>
   </g>
   <g id="patch_134">
    <path d="M 224.647427 307.584 
L 225.798685 307.584 
L 225.798685 307.584 
L 224.647427 307.584 
z
" clip-path="url(#p7010bb4773)" style="fill: #1f77b4"/>
   </g>
   <g id="patch_135">
    <path d="M 225.798685 307.584 
L 226.949942 307.584 
L 226.949942 307.584 
L 225.798685 307.584 
z
" clip-path="url(#p7010bb4773)" style="fill: #1f77b4"/>
   </g>
   <g id="patch_136">
    <path d="M 226.949942 307.584 
L 228.101199 307.584 
L 228.101199 307.584 
L 226.949942 307.584 
z
" clip-path="url(#p7010bb4773)" style="fill: #1f77b4"/>
   </g>
   <g id="patch_137">
    <path d="M 228.101199 307.584 
L 229.252456 307.584 
L 229.252456 307.584 
L 228.101199 307.584 
z
" clip-path="url(#p7010bb4773)" style="fill: #1f77b4"/>
   </g>
   <g id="patch_138">
    <path d="M 229.252456 307.584 
L 230.403714 307.584 
L 230.403714 307.584 
L 229.252456 307.584 
z
" clip-path="url(#p7010bb4773)" style="fill: #1f77b4"/>
   </g>
   <g id="patch_139">
    <path d="M 230.403714 307.584 
L 231.554971 307.584 
L 231.554971 307.584 
L 230.403714 307.584 
z
" clip-path="url(#p7010bb4773)" style="fill: #1f77b4"/>
   </g>
   <g id="patch_140">
    <path d="M 231.554971 307.584 
L 232.706228 307.584 
L 232.706228 307.584 
L 231.554971 307.584 
z
" clip-path="url(#p7010bb4773)" style="fill: #1f77b4"/>
   </g>
   <g id="patch_141">
    <path d="M 232.706228 307.584 
L 233.857485 307.584 
L 233.857485 307.584 
L 232.706228 307.584 
z
" clip-path="url(#p7010bb4773)" style="fill: #1f77b4"/>
   </g>
   <g id="patch_142">
    <path d="M 233.857485 307.584 
L 235.008743 307.584 
L 235.008743 307.584 
L 233.857485 307.584 
z
" clip-path="url(#p7010bb4773)" style="fill: #1f77b4"/>
   </g>
   <g id="patch_143">
    <path d="M 235.008743 307.584 
L 236.16 307.584 
L 236.16 307.584 
L 235.008743 307.584 
z
" clip-path="url(#p7010bb4773)" style="fill: #1f77b4"/>
   </g>
   <g id="patch_144">
    <path d="M 236.16 307.584 
L 237.311257 307.584 
L 237.311257 307.584 
L 236.16 307.584 
z
" clip-path="url(#p7010bb4773)" style="fill: #1f77b4"/>
   </g>
   <g id="patch_145">
    <path d="M 237.311257 307.584 
L 238.462515 307.584 
L 238.462515 307.584 
L 237.311257 307.584 
z
" clip-path="url(#p7010bb4773)" style="fill: #1f77b4"/>
   </g>
   <g id="patch_146">
    <path d="M 238.462515 307.584 
L 239.613772 307.584 
L 239.613772 307.584 
L 238.462515 307.584 
z
" clip-path="url(#p7010bb4773)" style="fill: #1f77b4"/>
   </g>
   <g id="patch_147">
    <path d="M 239.613772 307.584 
L 240.765029 307.584 
L 240.765029 307.584 
L 239.613772 307.584 
z
" clip-path="url(#p7010bb4773)" style="fill: #1f77b4"/>
   </g>
   <g id="patch_148">
    <path d="M 240.765029 307.584 
L 241.916286 307.584 
L 241.916286 307.584 
L 240.765029 307.584 
z
" clip-path="url(#p7010bb4773)" style="fill: #1f77b4"/>
   </g>
   <g id="patch_149">
    <path d="M 241.916286 307.584 
L 243.067544 307.584 
L 243.067544 307.584 
L 241.916286 307.584 
z
" clip-path="url(#p7010bb4773)" style="fill: #1f77b4"/>
   </g>
   <g id="patch_150">
    <path d="M 243.067544 307.584 
L 244.218801 307.584 
L 244.218801 307.584 
L 243.067544 307.584 
z
" clip-path="url(#p7010bb4773)" style="fill: #1f77b4"/>
   </g>
   <g id="patch_151">
    <path d="M 244.218801 307.584 
L 245.370058 307.584 
L 245.370058 307.584 
L 244.218801 307.584 
z
" clip-path="url(#p7010bb4773)" style="fill: #1f77b4"/>
   </g>
   <g id="patch_152">
    <path d="M 245.370058 307.584 
L 246.521315 307.584 
L 246.521315 307.584 
L 245.370058 307.584 
z
" clip-path="url(#p7010bb4773)" style="fill: #1f77b4"/>
   </g>
   <g id="patch_153">
    <path d="M 246.521315 307.584 
L 247.672573 307.584 
L 247.672573 307.584 
L 246.521315 307.584 
z
" clip-path="url(#p7010bb4773)" style="fill: #1f77b4"/>
   </g>
   <g id="patch_154">
    <path d="M 247.672573 307.584 
L 248.82383 307.584 
L 248.82383 307.584 
L 247.672573 307.584 
z
" clip-path="url(#p7010bb4773)" style="fill: #1f77b4"/>
   </g>
   <g id="patch_155">
    <path d="M 248.82383 307.584 
L 249.975087 307.584 
L 249.975087 307.584 
L 248.82383 307.584 
z
" clip-path="url(#p7010bb4773)" style="fill: #1f77b4"/>
   </g>
   <g id="patch_156">
    <path d="M 249.975087 307.584 
L 251.126344 307.584 
L 251.126344 307.584 
L 249.975087 307.584 
z
" clip-path="url(#p7010bb4773)" style="fill: #1f77b4"/>
   </g>
   <g id="patch_157">
    <path d="M 251.126344 307.584 
L 252.277602 307.584 
L 252.277602 307.584 
L 251.126344 307.584 
z
" clip-path="url(#p7010bb4773)" style="fill: #1f77b4"/>
   </g>
   <g id="patch_158">
    <path d="M 252.277602 307.584 
L 253.428859 307.584 
L 253.428859 307.584 
L 252.277602 307.584 
z
" clip-path="url(#p7010bb4773)" style="fill: #1f77b4"/>
   </g>
   <g id="patch_159">
    <path d="M 253.428859 307.584 
L 254.580116 307.584 
L 254.580116 307.584 
L 253.428859 307.584 
z
" clip-path="url(#p7010bb4773)" style="fill: #1f77b4"/>
   </g>
   <g id="patch_160">
    <path d="M 254.580116 307.584 
L 255.731373 307.584 
L 255.731373 307.584 
L 254.580116 307.584 
z
" clip-path="url(#p7010bb4773)" style="fill: #1f77b4"/>
   </g>
   <g id="patch_161">
    <path d="M 255.731373 307.584 
L 256.882631 307.584 
L 256.882631 307.584 
L 255.731373 307.584 
z
" clip-path="url(#p7010bb4773)" style="fill: #1f77b4"/>
   </g>
   <g id="patch_162">
    <path d="M 256.882631 307.584 
L 258.033888 307.584 
L 258.033888 307.584 
L 256.882631 307.584 
z
" clip-path="url(#p7010bb4773)" style="fill: #1f77b4"/>
   </g>
   <g id="patch_163">
    <path d="M 258.033888 307.584 
L 259.185145 307.584 
L 259.185145 307.584 
L 258.033888 307.584 
z
" clip-path="url(#p7010bb4773)" style="fill: #1f77b4"/>
   </g>
   <g id="patch_164">
    <path d="M 259.185145 307.584 
L 260.336402 307.584 
L 260.336402 307.584 
L 259.185145 307.584 
z
" clip-path="url(#p7010bb4773)" style="fill: #1f77b4"/>
   </g>
   <g id="patch_165">
    <path d="M 260.336402 307.584 
L 261.48766 307.584 
L 261.48766 307.584 
L 260.336402 307.584 
z
" clip-path="url(#p7010bb4773)" style="fill: #1f77b4"/>
   </g>
   <g id="patch_166">
    <path d="M 261.48766 307.584 
L 262.638917 307.584 
L 262.638917 307.584 
L 261.48766 307.584 
z
" clip-path="url(#p7010bb4773)" style="fill: #1f77b4"/>
   </g>
   <g id="patch_167">
    <path d="M 262.638917 307.584 
L 263.790174 307.584 
L 263.790174 307.584 
L 262.638917 307.584 
z
" clip-path="url(#p7010bb4773)" style="fill: #1f77b4"/>
   </g>
   <g id="patch_168">
    <path d="M 263.790174 307.584 
L 264.941431 307.584 
L 264.941431 307.584 
L 263.790174 307.584 
z
" clip-path="url(#p7010bb4773)" style="fill: #1f77b4"/>
   </g>
   <g id="patch_169">
    <path d="M 264.941431 307.584 
L 266.092689 307.584 
L 266.092689 307.584 
L 264.941431 307.584 
z
" clip-path="url(#p7010bb4773)" style="fill: #1f77b4"/>
   </g>
   <g id="patch_170">
    <path d="M 266.092689 307.584 
L 267.243946 307.584 
L 267.243946 307.584 
L 266.092689 307.584 
z
" clip-path="url(#p7010bb4773)" style="fill: #1f77b4"/>
   </g>
   <g id="patch_171">
    <path d="M 267.243946 307.584 
L 268.395203 307.584 
L 268.395203 307.584 
L 267.243946 307.584 
z
" clip-path="url(#p7010bb4773)" style="fill: #1f77b4"/>
   </g>
   <g id="patch_172">
    <path d="M 268.395203 307.584 
L 269.54646 307.584 
L 269.54646 307.584 
L 268.395203 307.584 
z
" clip-path="url(#p7010bb4773)" style="fill: #1f77b4"/>
   </g>
   <g id="patch_173">
    <path d="M 269.54646 307.584 
L 270.697718 307.584 
L 270.697718 307.584 
L 269.54646 307.584 
z
" clip-path="url(#p7010bb4773)" style="fill: #1f77b4"/>
   </g>
   <g id="patch_174">
    <path d="M 270.697718 307.584 
L 271.848975 307.584 
L 271.848975 307.584 
L 270.697718 307.584 
z
" clip-path="url(#p7010bb4773)" style="fill: #1f77b4"/>
   </g>
   <g id="patch_175">
    <path d="M 271.848975 307.584 
L 273.000232 307.584 
L 273.000232 307.584 
L 271.848975 307.584 
z
" clip-path="url(#p7010bb4773)" style="fill: #1f77b4"/>
   </g>
   <g id="patch_176">
    <path d="M 273.000232 307.584 
L 274.151489 307.584 
L 274.151489 307.584 
L 273.000232 307.584 
z
" clip-path="url(#p7010bb4773)" style="fill: #1f77b4"/>
   </g>
   <g id="patch_177">
    <path d="M 274.151489 307.584 
L 275.302747 307.584 
L 275.302747 307.584 
L 274.151489 307.584 
z
" clip-path="url(#p7010bb4773)" style="fill: #1f77b4"/>
   </g>
   <g id="patch_178">
    <path d="M 275.302747 307.584 
L 276.454004 307.584 
L 276.454004 307.584 
L 275.302747 307.584 
z
" clip-path="url(#p7010bb4773)" style="fill: #1f77b4"/>
   </g>
   <g id="patch_179">
    <path d="M 276.454004 307.584 
L 277.605261 307.584 
L 277.605261 307.584 
L 276.454004 307.584 
z
" clip-path="url(#p7010bb4773)" style="fill: #1f77b4"/>
   </g>
   <g id="patch_180">
    <path d="M 277.605261 307.584 
L 278.756518 307.584 
L 278.756518 307.584 
L 277.605261 307.584 
z
" clip-path="url(#p7010bb4773)" style="fill: #1f77b4"/>
   </g>
   <g id="patch_181">
    <path d="M 278.756518 307.584 
L 279.907776 307.584 
L 279.907776 307.584 
L 278.756518 307.584 
z
" clip-path="url(#p7010bb4773)" style="fill: #1f77b4"/>
   </g>
   <g id="patch_182">
    <path d="M 279.907776 307.584 
L 281.059033 307.584 
L 281.059033 307.584 
L 279.907776 307.584 
z
" clip-path="url(#p7010bb4773)" style="fill: #1f77b4"/>
   </g>
   <g id="patch_183">
    <path d="M 281.059033 307.584 
L 282.21029 307.584 
L 282.21029 307.584 
L 281.059033 307.584 
z
" clip-path="url(#p7010bb4773)" style="fill: #1f77b4"/>
   </g>
   <g id="patch_184">
    <path d="M 282.21029 307.584 
L 283.361547 307.584 
L 283.361547 307.584 
L 282.21029 307.584 
z
" clip-path="url(#p7010bb4773)" style="fill: #1f77b4"/>
   </g>
   <g id="patch_185">
    <path d="M 283.361547 307.584 
L 284.512805 307.584 
L 284.512805 307.584 
L 283.361547 307.584 
z
" clip-path="url(#p7010bb4773)" style="fill: #1f77b4"/>
   </g>
   <g id="patch_186">
    <path d="M 284.512805 307.584 
L 285.664062 307.584 
L 285.664062 307.584 
L 284.512805 307.584 
z
" clip-path="url(#p7010bb4773)" style="fill: #1f77b4"/>
   </g>
   <g id="patch_187">
    <path d="M 285.664062 307.584 
L 286.815319 307.584 
L 286.815319 307.584 
L 285.664062 307.584 
z
" clip-path="url(#p7010bb4773)" style="fill: #1f77b4"/>
   </g>
   <g id="patch_188">
    <path d="M 286.815319 307.584 
L 287.966576 307.584 
L 287.966576 307.584 
L 286.815319 307.584 
z
" clip-path="url(#p7010bb4773)" style="fill: #1f77b4"/>
   </g>
   <g id="patch_189">
    <path d="M 287.966576 307.584 
L 289.117834 307.584 
L 289.117834 307.584 
L 287.966576 307.584 
z
" clip-path="url(#p7010bb4773)" style="fill: #1f77b4"/>
   </g>
   <g id="patch_190">
    <path d="M 289.117834 307.584 
L 290.269091 307.584 
L 290.269091 307.584 
L 289.117834 307.584 
z
" clip-path="url(#p7010bb4773)" style="fill: #1f77b4"/>
   </g>
   <g id="patch_191">
    <path d="M 290.269091 307.584 
L 291.420348 307.584 
L 291.420348 244.681143 
L 290.269091 244.681143 
z
" clip-path="url(#p7010bb4773)" style="fill: #1f77b4"/>
   </g>
   <g id="patch_192">
    <path d="M 291.420348 307.584 
L 292.571605 307.584 
L 292.571605 273.298286 
L 291.420348 273.298286 
z
" clip-path="url(#p7010bb4773)" style="fill: #1f77b4"/>
   </g>
   <g id="patch_193">
    <path d="M 292.571605 307.584 
L 293.722863 307.584 
L 293.722863 307.584 
L 292.571605 307.584 
z
" clip-path="url(#p7010bb4773)" style="fill: #1f77b4"/>
   </g>
   <g id="patch_194">
    <path d="M 293.722863 307.584 
L 294.87412 307.584 
L 294.87412 307.584 
L 293.722863 307.584 
z
" clip-path="url(#p7010bb4773)" style="fill: #1f77b4"/>
   </g>
   <g id="patch_195">
    <path d="M 294.87412 307.584 
L 296.025377 307.584 
L 296.025377 307.584 
L 294.87412 307.584 
z
" clip-path="url(#p7010bb4773)" style="fill: #1f77b4"/>
   </g>
   <g id="patch_196">
    <path d="M 296.025377 307.584 
L 297.176634 307.584 
L 297.176634 307.584 
L 296.025377 307.584 
z
" clip-path="url(#p7010bb4773)" style="fill: #1f77b4"/>
   </g>
   <g id="patch_197">
    <path d="M 297.176634 307.584 
L 298.327892 307.584 
L 298.327892 307.584 
L 297.176634 307.584 
z
" clip-path="url(#p7010bb4773)" style="fill: #1f77b4"/>
   </g>
   <g id="patch_198">
    <path d="M 298.327892 307.584 
L 299.479149 307.584 
L 299.479149 307.584 
L 298.327892 307.584 
z
" clip-path="url(#p7010bb4773)" style="fill: #1f77b4"/>
   </g>
   <g id="patch_199">
    <path d="M 299.479149 307.584 
L 300.630406 307.584 
L 300.630406 307.584 
L 299.479149 307.584 
z
" clip-path="url(#p7010bb4773)" style="fill: #1f77b4"/>
   </g>
   <g id="patch_200">
    <path d="M 300.630406 307.584 
L 301.781663 307.584 
L 301.781663 307.584 
L 300.630406 307.584 
z
" clip-path="url(#p7010bb4773)" style="fill: #1f77b4"/>
   </g>
   <g id="patch_201">
    <path d="M 301.781663 307.584 
L 302.932921 307.584 
L 302.932921 307.584 
L 301.781663 307.584 
z
" clip-path="url(#p7010bb4773)" style="fill: #1f77b4"/>
   </g>
   <g id="patch_202">
    <path d="M 302.932921 307.584 
L 304.084178 307.584 
L 304.084178 307.584 
L 302.932921 307.584 
z
" clip-path="url(#p7010bb4773)" style="fill: #1f77b4"/>
   </g>
   <g id="patch_203">
    <path d="M 304.084178 307.584 
L 305.235435 307.584 
L 305.235435 307.584 
L 304.084178 307.584 
z
" clip-path="url(#p7010bb4773)" style="fill: #1f77b4"/>
   </g>
   <g id="patch_204">
    <path d="M 305.235435 307.584 
L 306.386692 307.584 
L 306.386692 307.584 
L 305.235435 307.584 
z
" clip-path="url(#p7010bb4773)" style="fill: #1f77b4"/>
   </g>
   <g id="patch_205">
    <path d="M 306.386692 307.584 
L 307.53795 307.584 
L 307.53795 307.584 
L 306.386692 307.584 
z
" clip-path="url(#p7010bb4773)" style="fill: #1f77b4"/>
   </g>
   <g id="patch_206">
    <path d="M 307.53795 307.584 
L 308.689207 307.584 
L 308.689207 307.584 
L 307.53795 307.584 
z
" clip-path="url(#p7010bb4773)" style="fill: #1f77b4"/>
   </g>
   <g id="patch_207">
    <path d="M 308.689207 307.584 
L 309.840464 307.584 
L 309.840464 307.584 
L 308.689207 307.584 
z
" clip-path="url(#p7010bb4773)" style="fill: #1f77b4"/>
   </g>
   <g id="patch_208">
    <path d="M 309.840464 307.584 
L 310.991721 307.584 
L 310.991721 307.584 
L 309.840464 307.584 
z
" clip-path="url(#p7010bb4773)" style="fill: #1f77b4"/>
   </g>
   <g id="patch_209">
    <path d="M 310.991721 307.584 
L 312.142979 307.584 
L 312.142979 307.584 
L 310.991721 307.584 
z
" clip-path="url(#p7010bb4773)" style="fill: #1f77b4"/>
   </g>
   <g id="patch_210">
    <path d="M 312.142979 307.584 
L 313.294236 307.584 
L 313.294236 307.584 
L 312.142979 307.584 
z
" clip-path="url(#p7010bb4773)" style="fill: #1f77b4"/>
   </g>
   <g id="patch_211">
    <path d="M 313.294236 307.584 
L 314.445493 307.584 
L 314.445493 307.584 
L 313.294236 307.584 
z
" clip-path="url(#p7010bb4773)" style="fill: #1f77b4"/>
   </g>
   <g id="patch_212">
    <path d="M 314.445493 307.584 
L 315.59675 307.584 
L 315.59675 307.584 
L 314.445493 307.584 
z
" clip-path="url(#p7010bb4773)" style="fill: #1f77b4"/>
   </g>
   <g id="patch_213">
    <path d="M 315.59675 307.584 
L 316.748008 307.584 
L 316.748008 307.584 
L 315.59675 307.584 
z
" clip-path="url(#p7010bb4773)" style="fill: #1f77b4"/>
   </g>
   <g id="patch_214">
    <path d="M 316.748008 307.584 
L 317.899265 307.584 
L 317.899265 307.584 
L 316.748008 307.584 
z
" clip-path="url(#p7010bb4773)" style="fill: #1f77b4"/>
   </g>
   <g id="patch_215">
    <path d="M 317.899265 307.584 
L 319.050522 307.584 
L 319.050522 307.584 
L 317.899265 307.584 
z
" clip-path="url(#p7010bb4773)" style="fill: #1f77b4"/>
   </g>
   <g id="patch_216">
    <path d="M 319.050522 307.584 
L 320.201779 307.584 
L 320.201779 307.584 
L 319.050522 307.584 
z
" clip-path="url(#p7010bb4773)" style="fill: #1f77b4"/>
   </g>
   <g id="patch_217">
    <path d="M 320.201779 307.584 
L 321.353037 307.584 
L 321.353037 307.584 
L 320.201779 307.584 
z
" clip-path="url(#p7010bb4773)" style="fill: #1f77b4"/>
   </g>
   <g id="patch_218">
    <path d="M 321.353037 307.584 
L 322.504294 307.584 
L 322.504294 307.584 
L 321.353037 307.584 
z
" clip-path="url(#p7010bb4773)" style="fill: #1f77b4"/>
   </g>
   <g id="patch_219">
    <path d="M 322.504294 307.584 
L 323.655551 307.584 
L 323.655551 307.584 
L 322.504294 307.584 
z
" clip-path="url(#p7010bb4773)" style="fill: #1f77b4"/>
   </g>
   <g id="patch_220">
    <path d="M 323.655551 307.584 
L 324.806809 307.584 
L 324.806809 307.584 
L 323.655551 307.584 
z
" clip-path="url(#p7010bb4773)" style="fill: #1f77b4"/>
   </g>
   <g id="patch_221">
    <path d="M 324.806809 307.584 
L 325.958066 307.584 
L 325.958066 307.584 
L 324.806809 307.584 
z
" clip-path="url(#p7010bb4773)" style="fill: #1f77b4"/>
   </g>
   <g id="patch_222">
    <path d="M 325.958066 307.584 
L 327.109323 307.584 
L 327.109323 307.584 
L 325.958066 307.584 
z
" clip-path="url(#p7010bb4773)" style="fill: #1f77b4"/>
   </g>
   <g id="patch_223">
    <path d="M 327.109323 307.584 
L 328.26058 307.584 
L 328.26058 307.584 
L 327.109323 307.584 
z
" clip-path="url(#p7010bb4773)" style="fill: #1f77b4"/>
   </g>
   <g id="patch_224">
    <path d="M 328.26058 307.584 
L 329.411838 307.584 
L 329.411838 307.584 
L 328.26058 307.584 
z
" clip-path="url(#p7010bb4773)" style="fill: #1f77b4"/>
   </g>
   <g id="patch_225">
    <path d="M 329.411838 307.584 
L 330.563095 307.584 
L 330.563095 307.584 
L 329.411838 307.584 
z
" clip-path="url(#p7010bb4773)" style="fill: #1f77b4"/>
   </g>
   <g id="patch_226">
    <path d="M 330.563095 307.584 
L 331.714352 307.584 
L 331.714352 307.584 
L 330.563095 307.584 
z
" clip-path="url(#p7010bb4773)" style="fill: #1f77b4"/>
   </g>
   <g id="patch_227">
    <path d="M 331.714352 307.584 
L 332.865609 307.584 
L 332.865609 307.584 
L 331.714352 307.584 
z
" clip-path="url(#p7010bb4773)" style="fill: #1f77b4"/>
   </g>
   <g id="patch_228">
    <path d="M 332.865609 307.584 
L 334.016867 307.584 
L 334.016867 307.584 
L 332.865609 307.584 
z
" clip-path="url(#p7010bb4773)" style="fill: #1f77b4"/>
   </g>
   <g id="patch_229">
    <path d="M 334.016867 307.584 
L 335.168124 307.584 
L 335.168124 307.584 
L 334.016867 307.584 
z
" clip-path="url(#p7010bb4773)" style="fill: #1f77b4"/>
   </g>
   <g id="patch_230">
    <path d="M 335.168124 307.584 
L 336.319381 307.584 
L 336.319381 307.584 
L 335.168124 307.584 
z
" clip-path="url(#p7010bb4773)" style="fill: #1f77b4"/>
   </g>
   <g id="patch_231">
    <path d="M 336.319381 307.584 
L 337.470638 307.584 
L 337.470638 307.584 
L 336.319381 307.584 
z
" clip-path="url(#p7010bb4773)" style="fill: #1f77b4"/>
   </g>
   <g id="patch_232">
    <path d="M 337.470638 307.584 
L 338.621896 307.584 
L 338.621896 307.584 
L 337.470638 307.584 
z
" clip-path="url(#p7010bb4773)" style="fill: #1f77b4"/>
   </g>
   <g id="patch_233">
    <path d="M 338.621896 307.584 
L 339.773153 307.584 
L 339.773153 307.584 
L 338.621896 307.584 
z
" clip-path="url(#p7010bb4773)" style="fill: #1f77b4"/>
   </g>
   <g id="patch_234">
    <path d="M 339.773153 307.584 
L 340.92441 307.584 
L 340.92441 307.584 
L 339.773153 307.584 
z
" clip-path="url(#p7010bb4773)" style="fill: #1f77b4"/>
   </g>
   <g id="patch_235">
    <path d="M 340.92441 307.584 
L 342.075667 307.584 
L 342.075667 307.584 
L 340.92441 307.584 
z
" clip-path="url(#p7010bb4773)" style="fill: #1f77b4"/>
   </g>
   <g id="patch_236">
    <path d="M 342.075667 307.584 
L 343.226925 307.584 
L 343.226925 307.584 
L 342.075667 307.584 
z
" clip-path="url(#p7010bb4773)" style="fill: #1f77b4"/>
   </g>
   <g id="patch_237">
    <path d="M 343.226925 307.584 
L 344.378182 307.584 
L 344.378182 307.584 
L 343.226925 307.584 
z
" clip-path="url(#p7010bb4773)" style="fill: #1f77b4"/>
   </g>
   <g id="patch_238">
    <path d="M 344.378182 307.584 
L 345.529439 307.584 
L 345.529439 307.584 
L 344.378182 307.584 
z
" clip-path="url(#p7010bb4773)" style="fill: #1f77b4"/>
   </g>
   <g id="patch_239">
    <path d="M 345.529439 307.584 
L 346.680696 307.584 
L 346.680696 307.584 
L 345.529439 307.584 
z
" clip-path="url(#p7010bb4773)" style="fill: #1f77b4"/>
   </g>
   <g id="patch_240">
    <path d="M 346.680696 307.584 
L 347.831954 307.584 
L 347.831954 307.584 
L 346.680696 307.584 
z
" clip-path="url(#p7010bb4773)" style="fill: #1f77b4"/>
   </g>
   <g id="patch_241">
    <path d="M 347.831954 307.584 
L 348.983211 307.584 
L 348.983211 307.584 
L 347.831954 307.584 
z
" clip-path="url(#p7010bb4773)" style="fill: #1f77b4"/>
   </g>
   <g id="patch_242">
    <path d="M 348.983211 307.584 
L 350.134468 307.584 
L 350.134468 307.584 
L 348.983211 307.584 
z
" clip-path="url(#p7010bb4773)" style="fill: #1f77b4"/>
   </g>
   <g id="patch_243">
    <path d="M 350.134468 307.584 
L 351.285725 307.584 
L 351.285725 307.584 
L 350.134468 307.584 
z
" clip-path="url(#p7010bb4773)" style="fill: #1f77b4"/>
   </g>
   <g id="patch_244">
    <path d="M 351.285725 307.584 
L 352.436983 307.584 
L 352.436983 307.584 
L 351.285725 307.584 
z
" clip-path="url(#p7010bb4773)" style="fill: #1f77b4"/>
   </g>
   <g id="patch_245">
    <path d="M 352.436983 307.584 
L 353.58824 307.584 
L 353.58824 307.584 
L 352.436983 307.584 
z
" clip-path="url(#p7010bb4773)" style="fill: #1f77b4"/>
   </g>
   <g id="patch_246">
    <path d="M 353.58824 307.584 
L 354.739497 307.584 
L 354.739497 307.584 
L 353.58824 307.584 
z
" clip-path="url(#p7010bb4773)" style="fill: #1f77b4"/>
   </g>
   <g id="patch_247">
    <path d="M 354.739497 307.584 
L 355.890754 307.584 
L 355.890754 307.584 
L 354.739497 307.584 
z
" clip-path="url(#p7010bb4773)" style="fill: #1f77b4"/>
   </g>
   <g id="patch_248">
    <path d="M 355.890754 307.584 
L 357.042012 307.584 
L 357.042012 307.584 
L 355.890754 307.584 
z
" clip-path="url(#p7010bb4773)" style="fill: #1f77b4"/>
   </g>
   <g id="patch_249">
    <path d="M 357.042012 307.584 
L 358.193269 307.584 
L 358.193269 307.584 
L 357.042012 307.584 
z
" clip-path="url(#p7010bb4773)" style="fill: #1f77b4"/>
   </g>
   <g id="patch_250">
    <path d="M 358.193269 307.584 
L 359.344526 307.584 
L 359.344526 307.584 
L 358.193269 307.584 
z
" clip-path="url(#p7010bb4773)" style="fill: #1f77b4"/>
   </g>
   <g id="patch_251">
    <path d="M 359.344526 307.584 
L 360.495783 307.584 
L 360.495783 307.584 
L 359.344526 307.584 
z
" clip-path="url(#p7010bb4773)" style="fill: #1f77b4"/>
   </g>
   <g id="patch_252">
    <path d="M 360.495783 307.584 
L 361.647041 307.584 
L 361.647041 307.584 
L 360.495783 307.584 
z
" clip-path="url(#p7010bb4773)" style="fill: #1f77b4"/>
   </g>
   <g id="patch_253">
    <path d="M 361.647041 307.584 
L 362.798298 307.584 
L 362.798298 307.584 
L 361.647041 307.584 
z
" clip-path="url(#p7010bb4773)" style="fill: #1f77b4"/>
   </g>
   <g id="patch_254">
    <path d="M 362.798298 307.584 
L 363.949555 307.584 
L 363.949555 307.584 
L 362.798298 307.584 
z
" clip-path="url(#p7010bb4773)" style="fill: #1f77b4"/>
   </g>
   <g id="patch_255">
    <path d="M 363.949555 307.584 
L 365.100812 307.584 
L 365.100812 307.584 
L 363.949555 307.584 
z
" clip-path="url(#p7010bb4773)" style="fill: #1f77b4"/>
   </g>
   <g id="patch_256">
    <path d="M 365.100812 307.584 
L 366.25207 307.584 
L 366.25207 307.584 
L 365.100812 307.584 
z
" clip-path="url(#p7010bb4773)" style="fill: #1f77b4"/>
   </g>
   <g id="patch_257">
    <path d="M 366.25207 307.584 
L 367.403327 307.584 
L 367.403327 307.584 
L 366.25207 307.584 
z
" clip-path="url(#p7010bb4773)" style="fill: #1f77b4"/>
   </g>
   <g id="patch_258">
    <path d="M 367.403327 307.584 
L 368.554584 307.584 
L 368.554584 307.584 
L 367.403327 307.584 
z
" clip-path="url(#p7010bb4773)" style="fill: #1f77b4"/>
   </g>
   <g id="patch_259">
    <path d="M 368.554584 307.584 
L 369.705841 307.584 
L 369.705841 307.584 
L 368.554584 307.584 
z
" clip-path="url(#p7010bb4773)" style="fill: #1f77b4"/>
   </g>
   <g id="patch_260">
    <path d="M 369.705841 307.584 
L 370.857099 307.584 
L 370.857099 307.584 
L 369.705841 307.584 
z
" clip-path="url(#p7010bb4773)" style="fill: #1f77b4"/>
   </g>
   <g id="patch_261">
    <path d="M 370.857099 307.584 
L 372.008356 307.584 
L 372.008356 307.584 
L 370.857099 307.584 
z
" clip-path="url(#p7010bb4773)" style="fill: #1f77b4"/>
   </g>
   <g id="patch_262">
    <path d="M 372.008356 307.584 
L 373.159613 307.584 
L 373.159613 307.584 
L 372.008356 307.584 
z
" clip-path="url(#p7010bb4773)" style="fill: #1f77b4"/>
   </g>
   <g id="patch_263">
    <path d="M 373.159613 307.584 
L 374.31087 307.584 
L 374.31087 307.584 
L 373.159613 307.584 
z
" clip-path="url(#p7010bb4773)" style="fill: #1f77b4"/>
   </g>
   <g id="patch_264">
    <path d="M 374.31087 307.584 
L 375.462128 307.584 
L 375.462128 307.584 
L 374.31087 307.584 
z
" clip-path="url(#p7010bb4773)" style="fill: #1f77b4"/>
   </g>
   <g id="patch_265">
    <path d="M 375.462128 307.584 
L 376.613385 307.584 
L 376.613385 307.584 
L 375.462128 307.584 
z
" clip-path="url(#p7010bb4773)" style="fill: #1f77b4"/>
   </g>
   <g id="patch_266">
    <path d="M 376.613385 307.584 
L 377.764642 307.584 
L 377.764642 307.584 
L 376.613385 307.584 
z
" clip-path="url(#p7010bb4773)" style="fill: #1f77b4"/>
   </g>
   <g id="patch_267">
    <path d="M 377.764642 307.584 
L 378.915899 307.584 
L 378.915899 307.584 
L 377.764642 307.584 
z
" clip-path="url(#p7010bb4773)" style="fill: #1f77b4"/>
   </g>
   <g id="patch_268">
    <path d="M 378.915899 307.584 
L 380.067157 307.584 
L 380.067157 307.584 
L 378.915899 307.584 
z
" clip-path="url(#p7010bb4773)" style="fill: #1f77b4"/>
   </g>
   <g id="patch_269">
    <path d="M 380.067157 307.584 
L 381.218414 307.584 
L 381.218414 307.584 
L 380.067157 307.584 
z
" clip-path="url(#p7010bb4773)" style="fill: #1f77b4"/>
   </g>
   <g id="patch_270">
    <path d="M 381.218414 307.584 
L 382.369671 307.584 
L 382.369671 307.584 
L 381.218414 307.584 
z
" clip-path="url(#p7010bb4773)" style="fill: #1f77b4"/>
   </g>
   <g id="patch_271">
    <path d="M 382.369671 307.584 
L 383.520928 307.584 
L 383.520928 307.584 
L 382.369671 307.584 
z
" clip-path="url(#p7010bb4773)" style="fill: #1f77b4"/>
   </g>
   <g id="patch_272">
    <path d="M 383.520928 307.584 
L 384.672186 307.584 
L 384.672186 307.584 
L 383.520928 307.584 
z
" clip-path="url(#p7010bb4773)" style="fill: #1f77b4"/>
   </g>
   <g id="patch_273">
    <path d="M 384.672186 307.584 
L 385.823443 307.584 
L 385.823443 307.584 
L 384.672186 307.584 
z
" clip-path="url(#p7010bb4773)" style="fill: #1f77b4"/>
   </g>
   <g id="patch_274">
    <path d="M 385.823443 307.584 
L 386.9747 307.584 
L 386.9747 307.584 
L 385.823443 307.584 
z
" clip-path="url(#p7010bb4773)" style="fill: #1f77b4"/>
   </g>
   <g id="patch_275">
    <path d="M 386.9747 307.584 
L 388.125957 307.584 
L 388.125957 307.584 
L 386.9747 307.584 
z
" clip-path="url(#p7010bb4773)" style="fill: #1f77b4"/>
   </g>
   <g id="patch_276">
    <path d="M 388.125957 307.584 
L 389.277215 307.584 
L 389.277215 307.584 
L 388.125957 307.584 
z
" clip-path="url(#p7010bb4773)" style="fill: #1f77b4"/>
   </g>
   <g id="patch_277">
    <path d="M 389.277215 307.584 
L 390.428472 307.584 
L 390.428472 307.584 
L 389.277215 307.584 
z
" clip-path="url(#p7010bb4773)" style="fill: #1f77b4"/>
   </g>
   <g id="patch_278">
    <path d="M 390.428472 307.584 
L 391.579729 307.584 
L 391.579729 307.584 
L 390.428472 307.584 
z
" clip-path="url(#p7010bb4773)" style="fill: #1f77b4"/>
   </g>
   <g id="patch_279">
    <path d="M 391.579729 307.584 
L 392.730986 307.584 
L 392.730986 307.584 
L 391.579729 307.584 
z
" clip-path="url(#p7010bb4773)" style="fill: #1f77b4"/>
   </g>
   <g id="patch_280">
    <path d="M 392.730986 307.584 
L 393.882244 307.584 
L 393.882244 307.584 
L 392.730986 307.584 
z
" clip-path="url(#p7010bb4773)" style="fill: #1f77b4"/>
   </g>
   <g id="patch_281">
    <path d="M 393.882244 307.584 
L 395.033501 307.584 
L 395.033501 307.584 
L 393.882244 307.584 
z
" clip-path="url(#p7010bb4773)" style="fill: #1f77b4"/>
   </g>
   <g id="patch_282">
    <path d="M 395.033501 307.584 
L 396.184758 307.584 
L 396.184758 307.584 
L 395.033501 307.584 
z
" clip-path="url(#p7010bb4773)" style="fill: #1f77b4"/>
   </g>
   <g id="patch_283">
    <path d="M 396.184758 307.584 
L 397.336015 307.584 
L 397.336015 307.584 
L 396.184758 307.584 
z
" clip-path="url(#p7010bb4773)" style="fill: #1f77b4"/>
   </g>
   <g id="patch_284">
    <path d="M 397.336015 307.584 
L 398.487273 307.584 
L 398.487273 237.001143 
L 397.336015 237.001143 
z
" clip-path="url(#p7010bb4773)" style="fill: #1f77b4"/>
   </g>
   <g id="matplotlib.axis_1">
    <g id="xtick_1">
     <g id="line2d_1">
      <defs>
       <path id="m0f05ec249f" d="M 0 0 
L 0 3.5 
" style="stroke: #000000; stroke-width: 0.8"/>
      </defs>
      <g>
       <use xlink:href="#m0f05ec249f" x="111.405933" y="307.584" style="stroke: #000000; stroke-width: 0.8"/>
      </g>
     </g>
     <g id="text_1">
      <!-- 0.5 -->
      <g transform="translate(103.454371 322.182437)scale(0.1 -0.1)">
       <defs>
        <path id="DejaVuSans-30" d="M 2034 4250 
Q 1547 4250 1301 3770 
Q 1056 3291 1056 2328 
Q 1056 1369 1301 889 
Q 1547 409 2034 409 
Q 2525 409 2770 889 
Q 3016 1369 3016 2328 
Q 3016 3291 2770 3770 
Q 2525 4250 2034 4250 
z
M 2034 4750 
Q 2819 4750 3233 4129 
Q 3647 3509 3647 2328 
Q 3647 1150 3233 529 
Q 2819 -91 2034 -91 
Q 1250 -91 836 529 
Q 422 1150 422 2328 
Q 422 3509 836 4129 
Q 1250 4750 2034 4750 
z
" transform="scale(0.015625)"/>
        <path id="DejaVuSans-2e" d="M 684 794 
L 1344 794 
L 1344 0 
L 684 0 
L 684 794 
z
" transform="scale(0.015625)"/>
        <path id="DejaVuSans-35" d="M 691 4666 
L 3169 4666 
L 3169 4134 
L 1269 4134 
L 1269 2991 
Q 1406 3038 1543 3061 
Q 1681 3084 1819 3084 
Q 2600 3084 3056 2656 
Q 3513 2228 3513 1497 
Q 3513 744 3044 326 
Q 2575 -91 1722 -91 
Q 1428 -91 1123 -41 
Q 819 9 494 109 
L 494 744 
Q 775 591 1075 516 
Q 1375 441 1709 441 
Q 2250 441 2565 725 
Q 2881 1009 2881 1497 
Q 2881 1984 2565 2268 
Q 2250 2553 1709 2553 
Q 1456 2553 1204 2497 
Q 953 2441 691 2322 
L 691 4666 
z
" transform="scale(0.015625)"/>
       </defs>
       <use xlink:href="#DejaVuSans-30"/>
       <use xlink:href="#DejaVuSans-2e" x="63.623047"/>
       <use xlink:href="#DejaVuSans-35" x="95.410156"/>
      </g>
     </g>
    </g>
    <g id="xtick_2">
     <g id="line2d_2">
      <g>
       <use xlink:href="#m0f05ec249f" x="168.822201" y="307.584" style="stroke: #000000; stroke-width: 0.8"/>
      </g>
     </g>
     <g id="text_2">
      <!-- 1.0 -->
      <g transform="translate(160.870638 322.182437)scale(0.1 -0.1)">
       <defs>
        <path id="DejaVuSans-31" d="M 794 531 
L 1825 531 
L 1825 4091 
L 703 3866 
L 703 4441 
L 1819 4666 
L 2450 4666 
L 2450 531 
L 3481 531 
L 3481 0 
L 794 0 
L 794 531 
z
" transform="scale(0.015625)"/>
       </defs>
       <use xlink:href="#DejaVuSans-31"/>
       <use xlink:href="#DejaVuSans-2e" x="63.623047"/>
       <use xlink:href="#DejaVuSans-30" x="95.410156"/>
      </g>
     </g>
    </g>
    <g id="xtick_3">
     <g id="line2d_3">
      <g>
       <use xlink:href="#m0f05ec249f" x="226.238469" y="307.584" style="stroke: #000000; stroke-width: 0.8"/>
      </g>
     </g>
     <g id="text_3">
      <!-- 1.5 -->
      <g transform="translate(218.286906 322.182437)scale(0.1 -0.1)">
       <use xlink:href="#DejaVuSans-31"/>
       <use xlink:href="#DejaVuSans-2e" x="63.623047"/>
       <use xlink:href="#DejaVuSans-35" x="95.410156"/>
      </g>
     </g>
    </g>
    <g id="xtick_4">
     <g id="line2d_4">
      <g>
       <use xlink:href="#m0f05ec249f" x="283.654737" y="307.584" style="stroke: #000000; stroke-width: 0.8"/>
      </g>
     </g>
     <g id="text_4">
      <!-- 2.0 -->
      <g transform="translate(275.703174 322.182437)scale(0.1 -0.1)">
       <defs>
        <path id="DejaVuSans-32" d="M 1228 531 
L 3431 531 
L 3431 0 
L 469 0 
L 469 531 
Q 828 903 1448 1529 
Q 2069 2156 2228 2338 
Q 2531 2678 2651 2914 
Q 2772 3150 2772 3378 
Q 2772 3750 2511 3984 
Q 2250 4219 1831 4219 
Q 1534 4219 1204 4116 
Q 875 4013 500 3803 
L 500 4441 
Q 881 4594 1212 4672 
Q 1544 4750 1819 4750 
Q 2544 4750 2975 4387 
Q 3406 4025 3406 3419 
Q 3406 3131 3298 2873 
Q 3191 2616 2906 2266 
Q 2828 2175 2409 1742 
Q 1991 1309 1228 531 
z
" transform="scale(0.015625)"/>
       </defs>
       <use xlink:href="#DejaVuSans-32"/>
       <use xlink:href="#DejaVuSans-2e" x="63.623047"/>
       <use xlink:href="#DejaVuSans-30" x="95.410156"/>
      </g>
     </g>
    </g>
    <g id="xtick_5">
     <g id="line2d_5">
      <g>
       <use xlink:href="#m0f05ec249f" x="341.071005" y="307.584" style="stroke: #000000; stroke-width: 0.8"/>
      </g>
     </g>
     <g id="text_5">
      <!-- 2.5 -->
      <g transform="translate(333.119442 322.182437)scale(0.1 -0.1)">
       <use xlink:href="#DejaVuSans-32"/>
       <use xlink:href="#DejaVuSans-2e" x="63.623047"/>
       <use xlink:href="#DejaVuSans-35" x="95.410156"/>
      </g>
     </g>
    </g>
    <g id="xtick_6">
     <g id="line2d_6">
      <g>
       <use xlink:href="#m0f05ec249f" x="398.487273" y="307.584" style="stroke: #000000; stroke-width: 0.8"/>
      </g>
     </g>
     <g id="text_6">
      <!-- 3.0 -->
      <g transform="translate(390.53571 322.182437)scale(0.1 -0.1)">
       <defs>
        <path id="DejaVuSans-33" d="M 2597 2516 
Q 3050 2419 3304 2112 
Q 3559 1806 3559 1356 
Q 3559 666 3084 287 
Q 2609 -91 1734 -91 
Q 1441 -91 1130 -33 
Q 819 25 488 141 
L 488 750 
Q 750 597 1062 519 
Q 1375 441 1716 441 
Q 2309 441 2620 675 
Q 2931 909 2931 1356 
Q 2931 1769 2642 2001 
Q 2353 2234 1838 2234 
L 1294 2234 
L 1294 2753 
L 1863 2753 
Q 2328 2753 2575 2939 
Q 2822 3125 2822 3475 
Q 2822 3834 2567 4026 
Q 2313 4219 1838 4219 
Q 1578 4219 1281 4162 
Q 984 4106 628 3988 
L 628 4550 
Q 988 4650 1302 4700 
Q 1616 4750 1894 4750 
Q 2613 4750 3031 4423 
Q 3450 4097 3450 3541 
Q 3450 3153 3228 2886 
Q 3006 2619 2597 2516 
z
" transform="scale(0.015625)"/>
       </defs>
       <use xlink:href="#DejaVuSans-33"/>
       <use xlink:href="#DejaVuSans-2e" x="63.623047"/>
       <use xlink:href="#DejaVuSans-30" x="95.410156"/>
      </g>
     </g>
    </g>
    <g id="text_7">
     <!-- pixel^2 -->
     <g transform="translate(216.956875 335.860562)scale(0.1 -0.1)">
      <defs>
       <path id="DejaVuSans-70" d="M 1159 525 
L 1159 -1331 
L 581 -1331 
L 581 3500 
L 1159 3500 
L 1159 2969 
Q 1341 3281 1617 3432 
Q 1894 3584 2278 3584 
Q 2916 3584 3314 3078 
Q 3713 2572 3713 1747 
Q 3713 922 3314 415 
Q 2916 -91 2278 -91 
Q 1894 -91 1617 61 
Q 1341 213 1159 525 
z
M 3116 1747 
Q 3116 2381 2855 2742 
Q 2594 3103 2138 3103 
Q 1681 3103 1420 2742 
Q 1159 2381 1159 1747 
Q 1159 1113 1420 752 
Q 1681 391 2138 391 
Q 2594 391 2855 752 
Q 3116 1113 3116 1747 
z
" transform="scale(0.015625)"/>
       <path id="DejaVuSans-69" d="M 603 3500 
L 1178 3500 
L 1178 0 
L 603 0 
L 603 3500 
z
M 603 4863 
L 1178 4863 
L 1178 4134 
L 603 4134 
L 603 4863 
z
" transform="scale(0.015625)"/>
       <path id="DejaVuSans-78" d="M 3513 3500 
L 2247 1797 
L 3578 0 
L 2900 0 
L 1881 1375 
L 863 0 
L 184 0 
L 1544 1831 
L 300 3500 
L 978 3500 
L 1906 2253 
L 2834 3500 
L 3513 3500 
z
" transform="scale(0.015625)"/>
       <path id="DejaVuSans-65" d="M 3597 1894 
L 3597 1613 
L 953 1613 
Q 991 1019 1311 708 
Q 1631 397 2203 397 
Q 2534 397 2845 478 
Q 3156 559 3463 722 
L 3463 178 
Q 3153 47 2828 -22 
Q 2503 -91 2169 -91 
Q 1331 -91 842 396 
Q 353 884 353 1716 
Q 353 2575 817 3079 
Q 1281 3584 2069 3584 
Q 2775 3584 3186 3129 
Q 3597 2675 3597 1894 
z
M 3022 2063 
Q 3016 2534 2758 2815 
Q 2500 3097 2075 3097 
Q 1594 3097 1305 2825 
Q 1016 2553 972 2059 
L 3022 2063 
z
" transform="scale(0.015625)"/>
       <path id="DejaVuSans-6c" d="M 603 4863 
L 1178 4863 
L 1178 0 
L 603 0 
L 603 4863 
z
" transform="scale(0.015625)"/>
       <path id="DejaVuSans-5e" d="M 2988 4666 
L 4684 2925 
L 4056 2925 
L 2681 4159 
L 1306 2925 
L 678 2925 
L 2375 4666 
L 2988 4666 
z
" transform="scale(0.015625)"/>
      </defs>
      <use xlink:href="#DejaVuSans-70"/>
      <use xlink:href="#DejaVuSans-69" x="63.476562"/>
      <use xlink:href="#DejaVuSans-78" x="91.259766"/>
      <use xlink:href="#DejaVuSans-65" x="147.314453"/>
      <use xlink:href="#DejaVuSans-6c" x="208.837891"/>
      <use xlink:href="#DejaVuSans-5e" x="236.621094"/>
      <use xlink:href="#DejaVuSans-32" x="320.410156"/>
     </g>
    </g>
    <g id="text_8">
     <!-- 1e6 -->
     <g transform="translate(395.841875 334.860562)scale(0.1 -0.1)">
      <defs>
       <path id="DejaVuSans-36" d="M 2113 2584 
Q 1688 2584 1439 2293 
Q 1191 2003 1191 1497 
Q 1191 994 1439 701 
Q 1688 409 2113 409 
Q 2538 409 2786 701 
Q 3034 994 3034 1497 
Q 3034 2003 2786 2293 
Q 2538 2584 2113 2584 
z
M 3366 4563 
L 3366 3988 
Q 3128 4100 2886 4159 
Q 2644 4219 2406 4219 
Q 1781 4219 1451 3797 
Q 1122 3375 1075 2522 
Q 1259 2794 1537 2939 
Q 1816 3084 2150 3084 
Q 2853 3084 3261 2657 
Q 3669 2231 3669 1497 
Q 3669 778 3244 343 
Q 2819 -91 2113 -91 
Q 1303 -91 875 529 
Q 447 1150 447 2328 
Q 447 3434 972 4092 
Q 1497 4750 2381 4750 
Q 2619 4750 2861 4703 
Q 3103 4656 3366 4563 
z
" transform="scale(0.015625)"/>
      </defs>
      <use xlink:href="#DejaVuSans-31"/>
      <use xlink:href="#DejaVuSans-65" x="63.623047"/>
      <use xlink:href="#DejaVuSans-36" x="125.146484"/>
     </g>
    </g>
   </g>
   <g id="matplotlib.axis_2">
    <g id="ytick_1">
     <g id="line2d_7">
      <defs>
       <path id="mc7ac3f2265" d="M 0 0 
L -3.5 0 
" style="stroke: #000000; stroke-width: 0.8"/>
      </defs>
      <g>
       <use xlink:href="#mc7ac3f2265" x="57.6" y="307.584" style="stroke: #000000; stroke-width: 0.8"/>
      </g>
     </g>
     <g id="text_9">
      <!-- 0 -->
      <g transform="translate(44.2375 311.383219)scale(0.1 -0.1)">
       <use xlink:href="#DejaVuSans-30"/>
      </g>
     </g>
    </g>
    <g id="ytick_2">
     <g id="line2d_8">
      <g>
       <use xlink:href="#mc7ac3f2265" x="57.6" y="261.869714" style="stroke: #000000; stroke-width: 0.8"/>
      </g>
     </g>
     <g id="text_10">
      <!-- 500 -->
      <g transform="translate(31.5125 265.668933)scale(0.1 -0.1)">
       <use xlink:href="#DejaVuSans-35"/>
       <use xlink:href="#DejaVuSans-30" x="63.623047"/>
       <use xlink:href="#DejaVuSans-30" x="127.246094"/>
      </g>
     </g>
    </g>
    <g id="ytick_3">
     <g id="line2d_9">
      <g>
       <use xlink:href="#mc7ac3f2265" x="57.6" y="216.155429" style="stroke: #000000; stroke-width: 0.8"/>
      </g>
     </g>
     <g id="text_11">
      <!-- 1000 -->
      <g transform="translate(25.15 219.954647)scale(0.1 -0.1)">
       <use xlink:href="#DejaVuSans-31"/>
       <use xlink:href="#DejaVuSans-30" x="63.623047"/>
       <use xlink:href="#DejaVuSans-30" x="127.246094"/>
       <use xlink:href="#DejaVuSans-30" x="190.869141"/>
      </g>
     </g>
    </g>
    <g id="ytick_4">
     <g id="line2d_10">
      <g>
       <use xlink:href="#mc7ac3f2265" x="57.6" y="170.441143" style="stroke: #000000; stroke-width: 0.8"/>
      </g>
     </g>
     <g id="text_12">
      <!-- 1500 -->
      <g transform="translate(25.15 174.240362)scale(0.1 -0.1)">
       <use xlink:href="#DejaVuSans-31"/>
       <use xlink:href="#DejaVuSans-35" x="63.623047"/>
       <use xlink:href="#DejaVuSans-30" x="127.246094"/>
       <use xlink:href="#DejaVuSans-30" x="190.869141"/>
      </g>
     </g>
    </g>
    <g id="ytick_5">
     <g id="line2d_11">
      <g>
       <use xlink:href="#mc7ac3f2265" x="57.6" y="124.726857" style="stroke: #000000; stroke-width: 0.8"/>
      </g>
     </g>
     <g id="text_13">
      <!-- 2000 -->
      <g transform="translate(25.15 128.526076)scale(0.1 -0.1)">
       <use xlink:href="#DejaVuSans-32"/>
       <use xlink:href="#DejaVuSans-30" x="63.623047"/>
       <use xlink:href="#DejaVuSans-30" x="127.246094"/>
       <use xlink:href="#DejaVuSans-30" x="190.869141"/>
      </g>
     </g>
    </g>
    <g id="ytick_6">
     <g id="line2d_12">
      <g>
       <use xlink:href="#mc7ac3f2265" x="57.6" y="79.012571" style="stroke: #000000; stroke-width: 0.8"/>
      </g>
     </g>
     <g id="text_14">
      <!-- 2500 -->
      <g transform="translate(25.15 82.81179)scale(0.1 -0.1)">
       <use xlink:href="#DejaVuSans-32"/>
       <use xlink:href="#DejaVuSans-35" x="63.623047"/>
       <use xlink:href="#DejaVuSans-30" x="127.246094"/>
       <use xlink:href="#DejaVuSans-30" x="190.869141"/>
      </g>
     </g>
    </g>
    <g id="text_15">
     <!-- number -->
     <g transform="translate(19.070312 194.042062)rotate(-90)scale(0.1 -0.1)">
      <defs>
       <path id="DejaVuSans-6e" d="M 3513 2113 
L 3513 0 
L 2938 0 
L 2938 2094 
Q 2938 2591 2744 2837 
Q 2550 3084 2163 3084 
Q 1697 3084 1428 2787 
Q 1159 2491 1159 1978 
L 1159 0 
L 581 0 
L 581 3500 
L 1159 3500 
L 1159 2956 
Q 1366 3272 1645 3428 
Q 1925 3584 2291 3584 
Q 2894 3584 3203 3211 
Q 3513 2838 3513 2113 
z
" transform="scale(0.015625)"/>
       <path id="DejaVuSans-75" d="M 544 1381 
L 544 3500 
L 1119 3500 
L 1119 1403 
Q 1119 906 1312 657 
Q 1506 409 1894 409 
Q 2359 409 2629 706 
Q 2900 1003 2900 1516 
L 2900 3500 
L 3475 3500 
L 3475 0 
L 2900 0 
L 2900 538 
Q 2691 219 2414 64 
Q 2138 -91 1772 -91 
Q 1169 -91 856 284 
Q 544 659 544 1381 
z
M 1991 3584 
L 1991 3584 
z
" transform="scale(0.015625)"/>
       <path id="DejaVuSans-6d" d="M 3328 2828 
Q 3544 3216 3844 3400 
Q 4144 3584 4550 3584 
Q 5097 3584 5394 3201 
Q 5691 2819 5691 2113 
L 5691 0 
L 5113 0 
L 5113 2094 
Q 5113 2597 4934 2840 
Q 4756 3084 4391 3084 
Q 3944 3084 3684 2787 
Q 3425 2491 3425 1978 
L 3425 0 
L 2847 0 
L 2847 2094 
Q 2847 2600 2669 2842 
Q 2491 3084 2119 3084 
Q 1678 3084 1418 2786 
Q 1159 2488 1159 1978 
L 1159 0 
L 581 0 
L 581 3500 
L 1159 3500 
L 1159 2956 
Q 1356 3278 1631 3431 
Q 1906 3584 2284 3584 
Q 2666 3584 2933 3390 
Q 3200 3197 3328 2828 
z
" transform="scale(0.015625)"/>
       <path id="DejaVuSans-62" d="M 3116 1747 
Q 3116 2381 2855 2742 
Q 2594 3103 2138 3103 
Q 1681 3103 1420 2742 
Q 1159 2381 1159 1747 
Q 1159 1113 1420 752 
Q 1681 391 2138 391 
Q 2594 391 2855 752 
Q 3116 1113 3116 1747 
z
M 1159 2969 
Q 1341 3281 1617 3432 
Q 1894 3584 2278 3584 
Q 2916 3584 3314 3078 
Q 3713 2572 3713 1747 
Q 3713 922 3314 415 
Q 2916 -91 2278 -91 
Q 1894 -91 1617 61 
Q 1341 213 1159 525 
L 1159 0 
L 581 0 
L 581 4863 
L 1159 4863 
L 1159 2969 
z
" transform="scale(0.015625)"/>
       <path id="DejaVuSans-72" d="M 2631 2963 
Q 2534 3019 2420 3045 
Q 2306 3072 2169 3072 
Q 1681 3072 1420 2755 
Q 1159 2438 1159 1844 
L 1159 0 
L 581 0 
L 581 3500 
L 1159 3500 
L 1159 2956 
Q 1341 3275 1631 3429 
Q 1922 3584 2338 3584 
Q 2397 3584 2469 3576 
Q 2541 3569 2628 3553 
L 2631 2963 
z
" transform="scale(0.015625)"/>
      </defs>
      <use xlink:href="#DejaVuSans-6e"/>
      <use xlink:href="#DejaVuSans-75" x="63.378906"/>
      <use xlink:href="#DejaVuSans-6d" x="126.757812"/>
      <use xlink:href="#DejaVuSans-62" x="224.169922"/>
      <use xlink:href="#DejaVuSans-65" x="287.646484"/>
      <use xlink:href="#DejaVuSans-72" x="349.169922"/>
     </g>
    </g>
   </g>
   <g id="patch_285">
    <path d="M 57.6 307.584 
L 57.6 41.472 
" style="fill: none; stroke: #000000; stroke-width: 0.8; stroke-linejoin: miter; stroke-linecap: square"/>
   </g>
   <g id="patch_286">
    <path d="M 414.72 307.584 
L 414.72 41.472 
" style="fill: none; stroke: #000000; stroke-width: 0.8; stroke-linejoin: miter; stroke-linecap: square"/>
   </g>
   <g id="patch_287">
    <path d="M 57.6 307.584 
L 414.72 307.584 
" style="fill: none; stroke: #000000; stroke-width: 0.8; stroke-linejoin: miter; stroke-linecap: square"/>
   </g>
   <g id="patch_288">
    <path d="M 57.6 41.472 
L 414.72 41.472 
" style="fill: none; stroke: #000000; stroke-width: 0.8; stroke-linejoin: miter; stroke-linecap: square"/>
   </g>
   <g id="text_16">
    <!-- area -->
    <g transform="translate(222.782813 35.472)scale(0.12 -0.12)">
     <defs>
      <path id="DejaVuSans-61" d="M 2194 1759 
Q 1497 1759 1228 1600 
Q 959 1441 959 1056 
Q 959 750 1161 570 
Q 1363 391 1709 391 
Q 2188 391 2477 730 
Q 2766 1069 2766 1631 
L 2766 1759 
L 2194 1759 
z
M 3341 1997 
L 3341 0 
L 2766 0 
L 2766 531 
Q 2569 213 2275 61 
Q 1981 -91 1556 -91 
Q 1019 -91 701 211 
Q 384 513 384 1019 
Q 384 1609 779 1909 
Q 1175 2209 1959 2209 
L 2766 2209 
L 2766 2266 
Q 2766 2663 2505 2880 
Q 2244 3097 1772 3097 
Q 1472 3097 1187 3025 
Q 903 2953 641 2809 
L 641 3341 
Q 956 3463 1253 3523 
Q 1550 3584 1831 3584 
Q 2591 3584 2966 3190 
Q 3341 2797 3341 1997 
z
" transform="scale(0.015625)"/>
     </defs>
     <use xlink:href="#DejaVuSans-61"/>
     <use xlink:href="#DejaVuSans-72" x="61.279297"/>
     <use xlink:href="#DejaVuSans-65" x="100.142578"/>
     <use xlink:href="#DejaVuSans-61" x="161.666016"/>
    </g>
   </g>
  </g>
 </g>
 <defs>
  <clipPath id="p7010bb4773">
   <rect x="57.6" y="41.472" width="357.12" height="266.112"/>
  </clipPath>
 </defs>
</svg>
