<?xml version="1.0" encoding="utf-8" standalone="no"?>
<!DOCTYPE svg PUBLIC "-//W3C//DTD SVG 1.1//EN"
  "http://www.w3.org/Graphics/SVG/1.1/DTD/svg11.dtd">
<svg xmlns:xlink="http://www.w3.org/1999/xlink" width="460.8pt" height="345.6pt" viewBox="0 0 460.8 345.6" xmlns="http://www.w3.org/2000/svg" version="1.1">
 <metadata>
  <rdf:RDF xmlns:dc="http://purl.org/dc/elements/1.1/" xmlns:cc="http://creativecommons.org/ns#" xmlns:rdf="http://www.w3.org/1999/02/22-rdf-syntax-ns#">
   <cc:Work>
    <dc:type rdf:resource="http://purl.org/dc/dcmitype/StillImage"/>
    <dc:date>2022-12-04T21:38:45.107040</dc:date>
    <dc:format>image/svg+xml</dc:format>
    <dc:creator>
     <cc:Agent>
      <dc:title>Matplotlib v3.5.3, https://matplotlib.org/</dc:title>
     </cc:Agent>
    </dc:creator>
   </cc:Work>
  </rdf:RDF>
 </metadata>
 <defs>
  <style type="text/css">*{stroke-linejoin: round; stroke-linecap: butt}</style>
 </defs>
 <g id="figure_1">
  <g id="patch_1">
   <path d="M 0 345.6 
L 460.8 345.6 
L 460.8 0 
L 0 0 
z
" style="fill: #ffffff"/>
  </g>
  <g id="axes_1">
   <g id="patch_2">
    <path d="M 57.6 307.584 
L 414.72 307.584 
L 414.72 41.472 
L 57.6 41.472 
z
" style="fill: #ffffff"/>
   </g>
   <g id="patch_3">
    <path d="M 73.832727 307.584 
L 76.680574 307.584 
L 76.680574 307.492571 
L 73.832727 307.492571 
z
" clip-path="url(#pd2100f0e53)" style="fill: #1f77b4"/>
   </g>
   <g id="patch_4">
    <path d="M 76.680574 307.584 
L 79.528421 307.584 
L 79.528421 307.584 
L 76.680574 307.584 
z
" clip-path="url(#pd2100f0e53)" style="fill: #1f77b4"/>
   </g>
   <g id="patch_5">
    <path d="M 79.528421 307.584 
L 82.376268 307.584 
L 82.376268 307.584 
L 79.528421 307.584 
z
" clip-path="url(#pd2100f0e53)" style="fill: #1f77b4"/>
   </g>
   <g id="patch_6">
    <path d="M 82.376268 307.584 
L 85.224115 307.584 
L 85.224115 307.584 
L 82.376268 307.584 
z
" clip-path="url(#pd2100f0e53)" style="fill: #1f77b4"/>
   </g>
   <g id="patch_7">
    <path d="M 85.224115 307.584 
L 88.071962 307.584 
L 88.071962 307.584 
L 85.224115 307.584 
z
" clip-path="url(#pd2100f0e53)" style="fill: #1f77b4"/>
   </g>
   <g id="patch_8">
    <path d="M 88.071962 307.584 
L 90.919809 307.584 
L 90.919809 307.584 
L 88.071962 307.584 
z
" clip-path="url(#pd2100f0e53)" style="fill: #1f77b4"/>
   </g>
   <g id="patch_9">
    <path d="M 90.919809 307.584 
L 93.767656 307.584 
L 93.767656 307.584 
L 90.919809 307.584 
z
" clip-path="url(#pd2100f0e53)" style="fill: #1f77b4"/>
   </g>
   <g id="patch_10">
    <path d="M 93.767656 307.584 
L 96.615502 307.584 
L 96.615502 307.584 
L 93.767656 307.584 
z
" clip-path="url(#pd2100f0e53)" style="fill: #1f77b4"/>
   </g>
   <g id="patch_11">
    <path d="M 96.615502 307.584 
L 99.463349 307.584 
L 99.463349 307.584 
L 96.615502 307.584 
z
" clip-path="url(#pd2100f0e53)" style="fill: #1f77b4"/>
   </g>
   <g id="patch_12">
    <path d="M 99.463349 307.584 
L 102.311196 307.584 
L 102.311196 307.584 
L 99.463349 307.584 
z
" clip-path="url(#pd2100f0e53)" style="fill: #1f77b4"/>
   </g>
   <g id="patch_13">
    <path d="M 102.311196 307.584 
L 105.159043 307.584 
L 105.159043 307.584 
L 102.311196 307.584 
z
" clip-path="url(#pd2100f0e53)" style="fill: #1f77b4"/>
   </g>
   <g id="patch_14">
    <path d="M 105.159043 307.584 
L 108.00689 307.584 
L 108.00689 307.584 
L 105.159043 307.584 
z
" clip-path="url(#pd2100f0e53)" style="fill: #1f77b4"/>
   </g>
   <g id="patch_15">
    <path d="M 108.00689 307.584 
L 110.854737 307.584 
L 110.854737 307.584 
L 108.00689 307.584 
z
" clip-path="url(#pd2100f0e53)" style="fill: #1f77b4"/>
   </g>
   <g id="patch_16">
    <path d="M 110.854737 307.584 
L 113.702584 307.584 
L 113.702584 307.584 
L 110.854737 307.584 
z
" clip-path="url(#pd2100f0e53)" style="fill: #1f77b4"/>
   </g>
   <g id="patch_17">
    <path d="M 113.702584 307.584 
L 116.550431 307.584 
L 116.550431 307.584 
L 113.702584 307.584 
z
" clip-path="url(#pd2100f0e53)" style="fill: #1f77b4"/>
   </g>
   <g id="patch_18">
    <path d="M 116.550431 307.584 
L 119.398278 307.584 
L 119.398278 307.584 
L 116.550431 307.584 
z
" clip-path="url(#pd2100f0e53)" style="fill: #1f77b4"/>
   </g>
   <g id="patch_19">
    <path d="M 119.398278 307.584 
L 122.246124 307.584 
L 122.246124 307.584 
L 119.398278 307.584 
z
" clip-path="url(#pd2100f0e53)" style="fill: #1f77b4"/>
   </g>
   <g id="patch_20">
    <path d="M 122.246124 307.584 
L 125.093971 307.584 
L 125.093971 307.584 
L 122.246124 307.584 
z
" clip-path="url(#pd2100f0e53)" style="fill: #1f77b4"/>
   </g>
   <g id="patch_21">
    <path d="M 125.093971 307.584 
L 127.941818 307.584 
L 127.941818 280.246857 
L 125.093971 280.246857 
z
" clip-path="url(#pd2100f0e53)" style="fill: #1f77b4"/>
   </g>
   <g id="patch_22">
    <path d="M 127.941818 307.584 
L 130.789665 307.584 
L 130.789665 307.584 
L 127.941818 307.584 
z
" clip-path="url(#pd2100f0e53)" style="fill: #1f77b4"/>
   </g>
   <g id="patch_23">
    <path d="M 130.789665 307.584 
L 133.637512 307.584 
L 133.637512 307.584 
L 130.789665 307.584 
z
" clip-path="url(#pd2100f0e53)" style="fill: #1f77b4"/>
   </g>
   <g id="patch_24">
    <path d="M 133.637512 307.584 
L 136.485359 307.584 
L 136.485359 307.584 
L 133.637512 307.584 
z
" clip-path="url(#pd2100f0e53)" style="fill: #1f77b4"/>
   </g>
   <g id="patch_25">
    <path d="M 136.485359 307.584 
L 139.333206 307.584 
L 139.333206 307.584 
L 136.485359 307.584 
z
" clip-path="url(#pd2100f0e53)" style="fill: #1f77b4"/>
   </g>
   <g id="patch_26">
    <path d="M 139.333206 307.584 
L 142.181053 307.584 
L 142.181053 307.584 
L 139.333206 307.584 
z
" clip-path="url(#pd2100f0e53)" style="fill: #1f77b4"/>
   </g>
   <g id="patch_27">
    <path d="M 142.181053 307.584 
L 145.0289 307.584 
L 145.0289 307.584 
L 142.181053 307.584 
z
" clip-path="url(#pd2100f0e53)" style="fill: #1f77b4"/>
   </g>
   <g id="patch_28">
    <path d="M 145.0289 307.584 
L 147.876746 307.584 
L 147.876746 307.584 
L 145.0289 307.584 
z
" clip-path="url(#pd2100f0e53)" style="fill: #1f77b4"/>
   </g>
   <g id="patch_29">
    <path d="M 147.876746 307.584 
L 150.724593 307.584 
L 150.724593 307.584 
L 147.876746 307.584 
z
" clip-path="url(#pd2100f0e53)" style="fill: #1f77b4"/>
   </g>
   <g id="patch_30">
    <path d="M 150.724593 307.584 
L 153.57244 307.584 
L 153.57244 307.584 
L 150.724593 307.584 
z
" clip-path="url(#pd2100f0e53)" style="fill: #1f77b4"/>
   </g>
   <g id="patch_31">
    <path d="M 153.57244 307.584 
L 156.420287 307.584 
L 156.420287 307.584 
L 153.57244 307.584 
z
" clip-path="url(#pd2100f0e53)" style="fill: #1f77b4"/>
   </g>
   <g id="patch_32">
    <path d="M 156.420287 307.584 
L 159.268134 307.584 
L 159.268134 307.584 
L 156.420287 307.584 
z
" clip-path="url(#pd2100f0e53)" style="fill: #1f77b4"/>
   </g>
   <g id="patch_33">
    <path d="M 159.268134 307.584 
L 162.115981 307.584 
L 162.115981 307.584 
L 159.268134 307.584 
z
" clip-path="url(#pd2100f0e53)" style="fill: #1f77b4"/>
   </g>
   <g id="patch_34">
    <path d="M 162.115981 307.584 
L 164.963828 307.584 
L 164.963828 307.584 
L 162.115981 307.584 
z
" clip-path="url(#pd2100f0e53)" style="fill: #1f77b4"/>
   </g>
   <g id="patch_35">
    <path d="M 164.963828 307.584 
L 167.811675 307.584 
L 167.811675 307.584 
L 164.963828 307.584 
z
" clip-path="url(#pd2100f0e53)" style="fill: #1f77b4"/>
   </g>
   <g id="patch_36">
    <path d="M 167.811675 307.584 
L 170.659522 307.584 
L 170.659522 307.584 
L 167.811675 307.584 
z
" clip-path="url(#pd2100f0e53)" style="fill: #1f77b4"/>
   </g>
   <g id="patch_37">
    <path d="M 170.659522 307.584 
L 173.507368 307.584 
L 173.507368 307.584 
L 170.659522 307.584 
z
" clip-path="url(#pd2100f0e53)" style="fill: #1f77b4"/>
   </g>
   <g id="patch_38">
    <path d="M 173.507368 307.584 
L 176.355215 307.584 
L 176.355215 307.584 
L 173.507368 307.584 
z
" clip-path="url(#pd2100f0e53)" style="fill: #1f77b4"/>
   </g>
   <g id="patch_39">
    <path d="M 176.355215 307.584 
L 179.203062 307.584 
L 179.203062 307.584 
L 176.355215 307.584 
z
" clip-path="url(#pd2100f0e53)" style="fill: #1f77b4"/>
   </g>
   <g id="patch_40">
    <path d="M 179.203062 307.584 
L 182.050909 307.584 
L 182.050909 307.584 
L 179.203062 307.584 
z
" clip-path="url(#pd2100f0e53)" style="fill: #1f77b4"/>
   </g>
   <g id="patch_41">
    <path d="M 182.050909 307.584 
L 184.898756 307.584 
L 184.898756 307.584 
L 182.050909 307.584 
z
" clip-path="url(#pd2100f0e53)" style="fill: #1f77b4"/>
   </g>
   <g id="patch_42">
    <path d="M 184.898756 307.584 
L 187.746603 307.584 
L 187.746603 307.492571 
L 184.898756 307.492571 
z
" clip-path="url(#pd2100f0e53)" style="fill: #1f77b4"/>
   </g>
   <g id="patch_43">
    <path d="M 187.746603 307.584 
L 190.59445 307.584 
L 190.59445 224.384 
L 187.746603 224.384 
z
" clip-path="url(#pd2100f0e53)" style="fill: #1f77b4"/>
   </g>
   <g id="patch_44">
    <path d="M 190.59445 307.584 
L 193.442297 307.584 
L 193.442297 307.584 
L 190.59445 307.584 
z
" clip-path="url(#pd2100f0e53)" style="fill: #1f77b4"/>
   </g>
   <g id="patch_45">
    <path d="M 193.442297 307.584 
L 196.290144 307.584 
L 196.290144 103.515429 
L 193.442297 103.515429 
z
" clip-path="url(#pd2100f0e53)" style="fill: #1f77b4"/>
   </g>
   <g id="patch_46">
    <path d="M 196.290144 307.584 
L 199.13799 307.584 
L 199.13799 307.584 
L 196.290144 307.584 
z
" clip-path="url(#pd2100f0e53)" style="fill: #1f77b4"/>
   </g>
   <g id="patch_47">
    <path d="M 199.13799 307.584 
L 201.985837 307.584 
L 201.985837 307.584 
L 199.13799 307.584 
z
" clip-path="url(#pd2100f0e53)" style="fill: #1f77b4"/>
   </g>
   <g id="patch_48">
    <path d="M 201.985837 307.584 
L 204.833684 307.584 
L 204.833684 307.584 
L 201.985837 307.584 
z
" clip-path="url(#pd2100f0e53)" style="fill: #1f77b4"/>
   </g>
   <g id="patch_49">
    <path d="M 204.833684 307.584 
L 207.681531 307.584 
L 207.681531 307.584 
L 204.833684 307.584 
z
" clip-path="url(#pd2100f0e53)" style="fill: #1f77b4"/>
   </g>
   <g id="patch_50">
    <path d="M 207.681531 307.584 
L 210.529378 307.584 
L 210.529378 307.584 
L 207.681531 307.584 
z
" clip-path="url(#pd2100f0e53)" style="fill: #1f77b4"/>
   </g>
   <g id="patch_51">
    <path d="M 210.529378 307.584 
L 213.377225 307.584 
L 213.377225 307.584 
L 210.529378 307.584 
z
" clip-path="url(#pd2100f0e53)" style="fill: #1f77b4"/>
   </g>
   <g id="patch_52">
    <path d="M 213.377225 307.584 
L 216.225072 307.584 
L 216.225072 307.584 
L 213.377225 307.584 
z
" clip-path="url(#pd2100f0e53)" style="fill: #1f77b4"/>
   </g>
   <g id="patch_53">
    <path d="M 216.225072 307.584 
L 219.072919 307.584 
L 219.072919 307.584 
L 216.225072 307.584 
z
" clip-path="url(#pd2100f0e53)" style="fill: #1f77b4"/>
   </g>
   <g id="patch_54">
    <path d="M 219.072919 307.584 
L 221.920766 307.584 
L 221.920766 307.584 
L 219.072919 307.584 
z
" clip-path="url(#pd2100f0e53)" style="fill: #1f77b4"/>
   </g>
   <g id="patch_55">
    <path d="M 221.920766 307.584 
L 224.768612 307.584 
L 224.768612 307.584 
L 221.920766 307.584 
z
" clip-path="url(#pd2100f0e53)" style="fill: #1f77b4"/>
   </g>
   <g id="patch_56">
    <path d="M 224.768612 307.584 
L 227.616459 307.584 
L 227.616459 307.584 
L 224.768612 307.584 
z
" clip-path="url(#pd2100f0e53)" style="fill: #1f77b4"/>
   </g>
   <g id="patch_57">
    <path d="M 227.616459 307.584 
L 230.464306 307.584 
L 230.464306 307.584 
L 227.616459 307.584 
z
" clip-path="url(#pd2100f0e53)" style="fill: #1f77b4"/>
   </g>
   <g id="patch_58">
    <path d="M 230.464306 307.584 
L 233.312153 307.584 
L 233.312153 307.584 
L 230.464306 307.584 
z
" clip-path="url(#pd2100f0e53)" style="fill: #1f77b4"/>
   </g>
   <g id="patch_59">
    <path d="M 233.312153 307.584 
L 236.16 307.584 
L 236.16 307.584 
L 233.312153 307.584 
z
" clip-path="url(#pd2100f0e53)" style="fill: #1f77b4"/>
   </g>
   <g id="patch_60">
    <path d="M 236.16 307.584 
L 239.007847 307.584 
L 239.007847 307.584 
L 236.16 307.584 
z
" clip-path="url(#pd2100f0e53)" style="fill: #1f77b4"/>
   </g>
   <g id="patch_61">
    <path d="M 239.007847 307.584 
L 241.855694 307.584 
L 241.855694 307.584 
L 239.007847 307.584 
z
" clip-path="url(#pd2100f0e53)" style="fill: #1f77b4"/>
   </g>
   <g id="patch_62">
    <path d="M 241.855694 307.584 
L 244.703541 307.584 
L 244.703541 307.584 
L 241.855694 307.584 
z
" clip-path="url(#pd2100f0e53)" style="fill: #1f77b4"/>
   </g>
   <g id="patch_63">
    <path d="M 244.703541 307.584 
L 247.551388 307.584 
L 247.551388 307.584 
L 244.703541 307.584 
z
" clip-path="url(#pd2100f0e53)" style="fill: #1f77b4"/>
   </g>
   <g id="patch_64">
    <path d="M 247.551388 307.584 
L 250.399234 307.584 
L 250.399234 307.584 
L 247.551388 307.584 
z
" clip-path="url(#pd2100f0e53)" style="fill: #1f77b4"/>
   </g>
   <g id="patch_65">
    <path d="M 250.399234 307.584 
L 253.247081 307.584 
L 253.247081 307.584 
L 250.399234 307.584 
z
" clip-path="url(#pd2100f0e53)" style="fill: #1f77b4"/>
   </g>
   <g id="patch_66">
    <path d="M 253.247081 307.584 
L 256.094928 307.584 
L 256.094928 307.584 
L 253.247081 307.584 
z
" clip-path="url(#pd2100f0e53)" style="fill: #1f77b4"/>
   </g>
   <g id="patch_67">
    <path d="M 256.094928 307.584 
L 258.942775 307.584 
L 258.942775 307.584 
L 256.094928 307.584 
z
" clip-path="url(#pd2100f0e53)" style="fill: #1f77b4"/>
   </g>
   <g id="patch_68">
    <path d="M 258.942775 307.584 
L 261.790622 307.584 
L 261.790622 307.584 
L 258.942775 307.584 
z
" clip-path="url(#pd2100f0e53)" style="fill: #1f77b4"/>
   </g>
   <g id="patch_69">
    <path d="M 261.790622 307.584 
L 264.638469 307.584 
L 264.638469 307.584 
L 261.790622 307.584 
z
" clip-path="url(#pd2100f0e53)" style="fill: #1f77b4"/>
   </g>
   <g id="patch_70">
    <path d="M 264.638469 307.584 
L 267.486316 307.584 
L 267.486316 307.584 
L 264.638469 307.584 
z
" clip-path="url(#pd2100f0e53)" style="fill: #1f77b4"/>
   </g>
   <g id="patch_71">
    <path d="M 267.486316 307.584 
L 270.334163 307.584 
L 270.334163 304.749714 
L 267.486316 304.749714 
z
" clip-path="url(#pd2100f0e53)" style="fill: #1f77b4"/>
   </g>
   <g id="patch_72">
    <path d="M 270.334163 307.584 
L 273.18201 307.584 
L 273.18201 54.144 
L 270.334163 54.144 
z
" clip-path="url(#pd2100f0e53)" style="fill: #1f77b4"/>
   </g>
   <g id="patch_73">
    <path d="M 273.18201 307.584 
L 276.029856 307.584 
L 276.029856 307.584 
L 273.18201 307.584 
z
" clip-path="url(#pd2100f0e53)" style="fill: #1f77b4"/>
   </g>
   <g id="patch_74">
    <path d="M 276.029856 307.584 
L 278.877703 307.584 
L 278.877703 244.681143 
L 276.029856 244.681143 
z
" clip-path="url(#pd2100f0e53)" style="fill: #1f77b4"/>
   </g>
   <g id="patch_75">
    <path d="M 278.877703 307.584 
L 281.72555 307.584 
L 281.72555 273.298286 
L 278.877703 273.298286 
z
" clip-path="url(#pd2100f0e53)" style="fill: #1f77b4"/>
   </g>
   <g id="patch_76">
    <path d="M 281.72555 307.584 
L 284.573397 307.584 
L 284.573397 307.584 
L 281.72555 307.584 
z
" clip-path="url(#pd2100f0e53)" style="fill: #1f77b4"/>
   </g>
   <g id="patch_77">
    <path d="M 284.573397 307.584 
L 287.421244 307.584 
L 287.421244 307.584 
L 284.573397 307.584 
z
" clip-path="url(#pd2100f0e53)" style="fill: #1f77b4"/>
   </g>
   <g id="patch_78">
    <path d="M 287.421244 307.584 
L 290.269091 307.584 
L 290.269091 307.584 
L 287.421244 307.584 
z
" clip-path="url(#pd2100f0e53)" style="fill: #1f77b4"/>
   </g>
   <g id="patch_79">
    <path d="M 290.269091 307.584 
L 293.116938 307.584 
L 293.116938 307.584 
L 290.269091 307.584 
z
" clip-path="url(#pd2100f0e53)" style="fill: #1f77b4"/>
   </g>
   <g id="patch_80">
    <path d="M 293.116938 307.584 
L 295.964785 307.584 
L 295.964785 307.584 
L 293.116938 307.584 
z
" clip-path="url(#pd2100f0e53)" style="fill: #1f77b4"/>
   </g>
   <g id="patch_81">
    <path d="M 295.964785 307.584 
L 298.812632 307.584 
L 298.812632 307.584 
L 295.964785 307.584 
z
" clip-path="url(#pd2100f0e53)" style="fill: #1f77b4"/>
   </g>
   <g id="patch_82">
    <path d="M 298.812632 307.584 
L 301.660478 307.584 
L 301.660478 307.584 
L 298.812632 307.584 
z
" clip-path="url(#pd2100f0e53)" style="fill: #1f77b4"/>
   </g>
   <g id="patch_83">
    <path d="M 301.660478 307.584 
L 304.508325 307.584 
L 304.508325 307.584 
L 301.660478 307.584 
z
" clip-path="url(#pd2100f0e53)" style="fill: #1f77b4"/>
   </g>
   <g id="patch_84">
    <path d="M 304.508325 307.584 
L 307.356172 307.584 
L 307.356172 307.584 
L 304.508325 307.584 
z
" clip-path="url(#pd2100f0e53)" style="fill: #1f77b4"/>
   </g>
   <g id="patch_85">
    <path d="M 307.356172 307.584 
L 310.204019 307.584 
L 310.204019 307.584 
L 307.356172 307.584 
z
" clip-path="url(#pd2100f0e53)" style="fill: #1f77b4"/>
   </g>
   <g id="patch_86">
    <path d="M 310.204019 307.584 
L 313.051866 307.584 
L 313.051866 307.584 
L 310.204019 307.584 
z
" clip-path="url(#pd2100f0e53)" style="fill: #1f77b4"/>
   </g>
   <g id="patch_87">
    <path d="M 313.051866 307.584 
L 315.899713 307.584 
L 315.899713 307.584 
L 313.051866 307.584 
z
" clip-path="url(#pd2100f0e53)" style="fill: #1f77b4"/>
   </g>
   <g id="patch_88">
    <path d="M 315.899713 307.584 
L 318.74756 307.584 
L 318.74756 307.584 
L 315.899713 307.584 
z
" clip-path="url(#pd2100f0e53)" style="fill: #1f77b4"/>
   </g>
   <g id="patch_89">
    <path d="M 318.74756 307.584 
L 321.595407 307.584 
L 321.595407 307.584 
L 318.74756 307.584 
z
" clip-path="url(#pd2100f0e53)" style="fill: #1f77b4"/>
   </g>
   <g id="patch_90">
    <path d="M 321.595407 307.584 
L 324.443254 307.584 
L 324.443254 307.584 
L 321.595407 307.584 
z
" clip-path="url(#pd2100f0e53)" style="fill: #1f77b4"/>
   </g>
   <g id="patch_91">
    <path d="M 324.443254 307.584 
L 327.2911 307.584 
L 327.2911 307.584 
L 324.443254 307.584 
z
" clip-path="url(#pd2100f0e53)" style="fill: #1f77b4"/>
   </g>
   <g id="patch_92">
    <path d="M 327.2911 307.584 
L 330.138947 307.584 
L 330.138947 307.584 
L 327.2911 307.584 
z
" clip-path="url(#pd2100f0e53)" style="fill: #1f77b4"/>
   </g>
   <g id="patch_93">
    <path d="M 330.138947 307.584 
L 332.986794 307.584 
L 332.986794 307.584 
L 330.138947 307.584 
z
" clip-path="url(#pd2100f0e53)" style="fill: #1f77b4"/>
   </g>
   <g id="patch_94">
    <path d="M 332.986794 307.584 
L 335.834641 307.584 
L 335.834641 307.584 
L 332.986794 307.584 
z
" clip-path="url(#pd2100f0e53)" style="fill: #1f77b4"/>
   </g>
   <g id="patch_95">
    <path d="M 335.834641 307.584 
L 338.682488 307.584 
L 338.682488 307.584 
L 335.834641 307.584 
z
" clip-path="url(#pd2100f0e53)" style="fill: #1f77b4"/>
   </g>
   <g id="patch_96">
    <path d="M 338.682488 307.584 
L 341.530335 307.584 
L 341.530335 307.584 
L 338.682488 307.584 
z
" clip-path="url(#pd2100f0e53)" style="fill: #1f77b4"/>
   </g>
   <g id="patch_97">
    <path d="M 341.530335 307.584 
L 344.378182 307.584 
L 344.378182 307.584 
L 341.530335 307.584 
z
" clip-path="url(#pd2100f0e53)" style="fill: #1f77b4"/>
   </g>
   <g id="patch_98">
    <path d="M 344.378182 307.584 
L 347.226029 307.584 
L 347.226029 307.584 
L 344.378182 307.584 
z
" clip-path="url(#pd2100f0e53)" style="fill: #1f77b4"/>
   </g>
   <g id="patch_99">
    <path d="M 347.226029 307.584 
L 350.073876 307.584 
L 350.073876 307.584 
L 347.226029 307.584 
z
" clip-path="url(#pd2100f0e53)" style="fill: #1f77b4"/>
   </g>
   <g id="patch_100">
    <path d="M 350.073876 307.584 
L 352.921722 307.584 
L 352.921722 307.584 
L 350.073876 307.584 
z
" clip-path="url(#pd2100f0e53)" style="fill: #1f77b4"/>
   </g>
   <g id="patch_101">
    <path d="M 352.921722 307.584 
L 355.769569 307.584 
L 355.769569 307.584 
L 352.921722 307.584 
z
" clip-path="url(#pd2100f0e53)" style="fill: #1f77b4"/>
   </g>
   <g id="patch_102">
    <path d="M 355.769569 307.584 
L 358.617416 307.584 
L 358.617416 307.584 
L 355.769569 307.584 
z
" clip-path="url(#pd2100f0e53)" style="fill: #1f77b4"/>
   </g>
   <g id="patch_103">
    <path d="M 358.617416 307.584 
L 361.465263 307.584 
L 361.465263 307.584 
L 358.617416 307.584 
z
" clip-path="url(#pd2100f0e53)" style="fill: #1f77b4"/>
   </g>
   <g id="patch_104">
    <path d="M 361.465263 307.584 
L 364.31311 307.584 
L 364.31311 307.584 
L 361.465263 307.584 
z
" clip-path="url(#pd2100f0e53)" style="fill: #1f77b4"/>
   </g>
   <g id="patch_105">
    <path d="M 364.31311 307.584 
L 367.160957 307.584 
L 367.160957 307.584 
L 364.31311 307.584 
z
" clip-path="url(#pd2100f0e53)" style="fill: #1f77b4"/>
   </g>
   <g id="patch_106">
    <path d="M 367.160957 307.584 
L 370.008804 307.584 
L 370.008804 307.584 
L 367.160957 307.584 
z
" clip-path="url(#pd2100f0e53)" style="fill: #1f77b4"/>
   </g>
   <g id="patch_107">
    <path d="M 370.008804 307.584 
L 372.856651 307.584 
L 372.856651 307.584 
L 370.008804 307.584 
z
" clip-path="url(#pd2100f0e53)" style="fill: #1f77b4"/>
   </g>
   <g id="patch_108">
    <path d="M 372.856651 307.584 
L 375.704498 307.584 
L 375.704498 307.584 
L 372.856651 307.584 
z
" clip-path="url(#pd2100f0e53)" style="fill: #1f77b4"/>
   </g>
   <g id="patch_109">
    <path d="M 375.704498 307.584 
L 378.552344 307.584 
L 378.552344 307.584 
L 375.704498 307.584 
z
" clip-path="url(#pd2100f0e53)" style="fill: #1f77b4"/>
   </g>
   <g id="patch_110">
    <path d="M 378.552344 307.584 
L 381.400191 307.584 
L 381.400191 307.584 
L 378.552344 307.584 
z
" clip-path="url(#pd2100f0e53)" style="fill: #1f77b4"/>
   </g>
   <g id="patch_111">
    <path d="M 381.400191 307.584 
L 384.248038 307.584 
L 384.248038 307.584 
L 381.400191 307.584 
z
" clip-path="url(#pd2100f0e53)" style="fill: #1f77b4"/>
   </g>
   <g id="patch_112">
    <path d="M 384.248038 307.584 
L 387.095885 307.584 
L 387.095885 307.584 
L 384.248038 307.584 
z
" clip-path="url(#pd2100f0e53)" style="fill: #1f77b4"/>
   </g>
   <g id="patch_113">
    <path d="M 387.095885 307.584 
L 389.943732 307.584 
L 389.943732 307.584 
L 387.095885 307.584 
z
" clip-path="url(#pd2100f0e53)" style="fill: #1f77b4"/>
   </g>
   <g id="patch_114">
    <path d="M 389.943732 307.584 
L 392.791579 307.584 
L 392.791579 307.584 
L 389.943732 307.584 
z
" clip-path="url(#pd2100f0e53)" style="fill: #1f77b4"/>
   </g>
   <g id="patch_115">
    <path d="M 392.791579 307.584 
L 395.639426 307.584 
L 395.639426 307.584 
L 392.791579 307.584 
z
" clip-path="url(#pd2100f0e53)" style="fill: #1f77b4"/>
   </g>
   <g id="patch_116">
    <path d="M 395.639426 307.584 
L 398.487273 307.584 
L 398.487273 237.001143 
L 395.639426 237.001143 
z
" clip-path="url(#pd2100f0e53)" style="fill: #1f77b4"/>
   </g>
   <g id="matplotlib.axis_1">
    <g id="xtick_1">
     <g id="line2d_1">
      <defs>
       <path id="m273ec0bd55" d="M 0 0 
L 0 3.5 
" style="stroke: #000000; stroke-width: 0.8"/>
      </defs>
      <g>
       <use xlink:href="#m273ec0bd55" x="85.224115" y="307.584" style="stroke: #000000; stroke-width: 0.8"/>
      </g>
     </g>
     <g id="text_1">
      <!-- 400 -->
      <g transform="translate(75.680365 322.182437)scale(0.1 -0.1)">
       <defs>
        <path id="DejaVuSans-34" d="M 2419 4116 
L 825 1625 
L 2419 1625 
L 2419 4116 
z
M 2253 4666 
L 3047 4666 
L 3047 1625 
L 3713 1625 
L 3713 1100 
L 3047 1100 
L 3047 0 
L 2419 0 
L 2419 1100 
L 313 1100 
L 313 1709 
L 2253 4666 
z
" transform="scale(0.015625)"/>
        <path id="DejaVuSans-30" d="M 2034 4250 
Q 1547 4250 1301 3770 
Q 1056 3291 1056 2328 
Q 1056 1369 1301 889 
Q 1547 409 2034 409 
Q 2525 409 2770 889 
Q 3016 1369 3016 2328 
Q 3016 3291 2770 3770 
Q 2525 4250 2034 4250 
z
M 2034 4750 
Q 2819 4750 3233 4129 
Q 3647 3509 3647 2328 
Q 3647 1150 3233 529 
Q 2819 -91 2034 -91 
Q 1250 -91 836 529 
Q 422 1150 422 2328 
Q 422 3509 836 4129 
Q 1250 4750 2034 4750 
z
" transform="scale(0.015625)"/>
       </defs>
       <use xlink:href="#DejaVuSans-34"/>
       <use xlink:href="#DejaVuSans-30" x="63.623047"/>
       <use xlink:href="#DejaVuSans-30" x="127.246094"/>
      </g>
     </g>
    </g>
    <g id="xtick_2">
     <g id="line2d_2">
      <g>
       <use xlink:href="#m273ec0bd55" x="142.181053" y="307.584" style="stroke: #000000; stroke-width: 0.8"/>
      </g>
     </g>
     <g id="text_2">
      <!-- 600 -->
      <g transform="translate(132.637303 322.182437)scale(0.1 -0.1)">
       <defs>
        <path id="DejaVuSans-36" d="M 2113 2584 
Q 1688 2584 1439 2293 
Q 1191 2003 1191 1497 
Q 1191 994 1439 701 
Q 1688 409 2113 409 
Q 2538 409 2786 701 
Q 3034 994 3034 1497 
Q 3034 2003 2786 2293 
Q 2538 2584 2113 2584 
z
M 3366 4563 
L 3366 3988 
Q 3128 4100 2886 4159 
Q 2644 4219 2406 4219 
Q 1781 4219 1451 3797 
Q 1122 3375 1075 2522 
Q 1259 2794 1537 2939 
Q 1816 3084 2150 3084 
Q 2853 3084 3261 2657 
Q 3669 2231 3669 1497 
Q 3669 778 3244 343 
Q 2819 -91 2113 -91 
Q 1303 -91 875 529 
Q 447 1150 447 2328 
Q 447 3434 972 4092 
Q 1497 4750 2381 4750 
Q 2619 4750 2861 4703 
Q 3103 4656 3366 4563 
z
" transform="scale(0.015625)"/>
       </defs>
       <use xlink:href="#DejaVuSans-36"/>
       <use xlink:href="#DejaVuSans-30" x="63.623047"/>
       <use xlink:href="#DejaVuSans-30" x="127.246094"/>
      </g>
     </g>
    </g>
    <g id="xtick_3">
     <g id="line2d_3">
      <g>
       <use xlink:href="#m273ec0bd55" x="199.13799" y="307.584" style="stroke: #000000; stroke-width: 0.8"/>
      </g>
     </g>
     <g id="text_3">
      <!-- 800 -->
      <g transform="translate(189.59424 322.182437)scale(0.1 -0.1)">
       <defs>
        <path id="DejaVuSans-38" d="M 2034 2216 
Q 1584 2216 1326 1975 
Q 1069 1734 1069 1313 
Q 1069 891 1326 650 
Q 1584 409 2034 409 
Q 2484 409 2743 651 
Q 3003 894 3003 1313 
Q 3003 1734 2745 1975 
Q 2488 2216 2034 2216 
z
M 1403 2484 
Q 997 2584 770 2862 
Q 544 3141 544 3541 
Q 544 4100 942 4425 
Q 1341 4750 2034 4750 
Q 2731 4750 3128 4425 
Q 3525 4100 3525 3541 
Q 3525 3141 3298 2862 
Q 3072 2584 2669 2484 
Q 3125 2378 3379 2068 
Q 3634 1759 3634 1313 
Q 3634 634 3220 271 
Q 2806 -91 2034 -91 
Q 1263 -91 848 271 
Q 434 634 434 1313 
Q 434 1759 690 2068 
Q 947 2378 1403 2484 
z
M 1172 3481 
Q 1172 3119 1398 2916 
Q 1625 2713 2034 2713 
Q 2441 2713 2670 2916 
Q 2900 3119 2900 3481 
Q 2900 3844 2670 4047 
Q 2441 4250 2034 4250 
Q 1625 4250 1398 4047 
Q 1172 3844 1172 3481 
z
" transform="scale(0.015625)"/>
       </defs>
       <use xlink:href="#DejaVuSans-38"/>
       <use xlink:href="#DejaVuSans-30" x="63.623047"/>
       <use xlink:href="#DejaVuSans-30" x="127.246094"/>
      </g>
     </g>
    </g>
    <g id="xtick_4">
     <g id="line2d_4">
      <g>
       <use xlink:href="#m273ec0bd55" x="256.094928" y="307.584" style="stroke: #000000; stroke-width: 0.8"/>
      </g>
     </g>
     <g id="text_4">
      <!-- 1000 -->
      <g transform="translate(243.369928 322.182437)scale(0.1 -0.1)">
       <defs>
        <path id="DejaVuSans-31" d="M 794 531 
L 1825 531 
L 1825 4091 
L 703 3866 
L 703 4441 
L 1819 4666 
L 2450 4666 
L 2450 531 
L 3481 531 
L 3481 0 
L 794 0 
L 794 531 
z
" transform="scale(0.015625)"/>
       </defs>
       <use xlink:href="#DejaVuSans-31"/>
       <use xlink:href="#DejaVuSans-30" x="63.623047"/>
       <use xlink:href="#DejaVuSans-30" x="127.246094"/>
       <use xlink:href="#DejaVuSans-30" x="190.869141"/>
      </g>
     </g>
    </g>
    <g id="xtick_5">
     <g id="line2d_5">
      <g>
       <use xlink:href="#m273ec0bd55" x="313.051866" y="307.584" style="stroke: #000000; stroke-width: 0.8"/>
      </g>
     </g>
     <g id="text_5">
      <!-- 1200 -->
      <g transform="translate(300.326866 322.182437)scale(0.1 -0.1)">
       <defs>
        <path id="DejaVuSans-32" d="M 1228 531 
L 3431 531 
L 3431 0 
L 469 0 
L 469 531 
Q 828 903 1448 1529 
Q 2069 2156 2228 2338 
Q 2531 2678 2651 2914 
Q 2772 3150 2772 3378 
Q 2772 3750 2511 3984 
Q 2250 4219 1831 4219 
Q 1534 4219 1204 4116 
Q 875 4013 500 3803 
L 500 4441 
Q 881 4594 1212 4672 
Q 1544 4750 1819 4750 
Q 2544 4750 2975 4387 
Q 3406 4025 3406 3419 
Q 3406 3131 3298 2873 
Q 3191 2616 2906 2266 
Q 2828 2175 2409 1742 
Q 1991 1309 1228 531 
z
" transform="scale(0.015625)"/>
       </defs>
       <use xlink:href="#DejaVuSans-31"/>
       <use xlink:href="#DejaVuSans-32" x="63.623047"/>
       <use xlink:href="#DejaVuSans-30" x="127.246094"/>
       <use xlink:href="#DejaVuSans-30" x="190.869141"/>
      </g>
     </g>
    </g>
    <g id="xtick_6">
     <g id="line2d_6">
      <g>
       <use xlink:href="#m273ec0bd55" x="370.008804" y="307.584" style="stroke: #000000; stroke-width: 0.8"/>
      </g>
     </g>
     <g id="text_6">
      <!-- 1400 -->
      <g transform="translate(357.283804 322.182437)scale(0.1 -0.1)">
       <use xlink:href="#DejaVuSans-31"/>
       <use xlink:href="#DejaVuSans-34" x="63.623047"/>
       <use xlink:href="#DejaVuSans-30" x="127.246094"/>
       <use xlink:href="#DejaVuSans-30" x="190.869141"/>
      </g>
     </g>
    </g>
    <g id="text_7">
     <!-- pixel -->
     <g transform="translate(224.327969 335.860562)scale(0.1 -0.1)">
      <defs>
       <path id="DejaVuSans-70" d="M 1159 525 
L 1159 -1331 
L 581 -1331 
L 581 3500 
L 1159 3500 
L 1159 2969 
Q 1341 3281 1617 3432 
Q 1894 3584 2278 3584 
Q 2916 3584 3314 3078 
Q 3713 2572 3713 1747 
Q 3713 922 3314 415 
Q 2916 -91 2278 -91 
Q 1894 -91 1617 61 
Q 1341 213 1159 525 
z
M 3116 1747 
Q 3116 2381 2855 2742 
Q 2594 3103 2138 3103 
Q 1681 3103 1420 2742 
Q 1159 2381 1159 1747 
Q 1159 1113 1420 752 
Q 1681 391 2138 391 
Q 2594 391 2855 752 
Q 3116 1113 3116 1747 
z
" transform="scale(0.015625)"/>
       <path id="DejaVuSans-69" d="M 603 3500 
L 1178 3500 
L 1178 0 
L 603 0 
L 603 3500 
z
M 603 4863 
L 1178 4863 
L 1178 4134 
L 603 4134 
L 603 4863 
z
" transform="scale(0.015625)"/>
       <path id="DejaVuSans-78" d="M 3513 3500 
L 2247 1797 
L 3578 0 
L 2900 0 
L 1881 1375 
L 863 0 
L 184 0 
L 1544 1831 
L 300 3500 
L 978 3500 
L 1906 2253 
L 2834 3500 
L 3513 3500 
z
" transform="scale(0.015625)"/>
       <path id="DejaVuSans-65" d="M 3597 1894 
L 3597 1613 
L 953 1613 
Q 991 1019 1311 708 
Q 1631 397 2203 397 
Q 2534 397 2845 478 
Q 3156 559 3463 722 
L 3463 178 
Q 3153 47 2828 -22 
Q 2503 -91 2169 -91 
Q 1331 -91 842 396 
Q 353 884 353 1716 
Q 353 2575 817 3079 
Q 1281 3584 2069 3584 
Q 2775 3584 3186 3129 
Q 3597 2675 3597 1894 
z
M 3022 2063 
Q 3016 2534 2758 2815 
Q 2500 3097 2075 3097 
Q 1594 3097 1305 2825 
Q 1016 2553 972 2059 
L 3022 2063 
z
" transform="scale(0.015625)"/>
       <path id="DejaVuSans-6c" d="M 603 4863 
L 1178 4863 
L 1178 0 
L 603 0 
L 603 4863 
z
" transform="scale(0.015625)"/>
      </defs>
      <use xlink:href="#DejaVuSans-70"/>
      <use xlink:href="#DejaVuSans-69" x="63.476562"/>
      <use xlink:href="#DejaVuSans-78" x="91.259766"/>
      <use xlink:href="#DejaVuSans-65" x="147.314453"/>
      <use xlink:href="#DejaVuSans-6c" x="208.837891"/>
     </g>
    </g>
   </g>
   <g id="matplotlib.axis_2">
    <g id="ytick_1">
     <g id="line2d_7">
      <defs>
       <path id="m8335814b1f" d="M 0 0 
L -3.5 0 
" style="stroke: #000000; stroke-width: 0.8"/>
      </defs>
      <g>
       <use xlink:href="#m8335814b1f" x="57.6" y="307.584" style="stroke: #000000; stroke-width: 0.8"/>
      </g>
     </g>
     <g id="text_8">
      <!-- 0 -->
      <g transform="translate(44.2375 311.383219)scale(0.1 -0.1)">
       <use xlink:href="#DejaVuSans-30"/>
      </g>
     </g>
    </g>
    <g id="ytick_2">
     <g id="line2d_8">
      <g>
       <use xlink:href="#m8335814b1f" x="57.6" y="261.869714" style="stroke: #000000; stroke-width: 0.8"/>
      </g>
     </g>
     <g id="text_9">
      <!-- 500 -->
      <g transform="translate(31.5125 265.668933)scale(0.1 -0.1)">
       <defs>
        <path id="DejaVuSans-35" d="M 691 4666 
L 3169 4666 
L 3169 4134 
L 1269 4134 
L 1269 2991 
Q 1406 3038 1543 3061 
Q 1681 3084 1819 3084 
Q 2600 3084 3056 2656 
Q 3513 2228 3513 1497 
Q 3513 744 3044 326 
Q 2575 -91 1722 -91 
Q 1428 -91 1123 -41 
Q 819 9 494 109 
L 494 744 
Q 775 591 1075 516 
Q 1375 441 1709 441 
Q 2250 441 2565 725 
Q 2881 1009 2881 1497 
Q 2881 1984 2565 2268 
Q 2250 2553 1709 2553 
Q 1456 2553 1204 2497 
Q 953 2441 691 2322 
L 691 4666 
z
" transform="scale(0.015625)"/>
       </defs>
       <use xlink:href="#DejaVuSans-35"/>
       <use xlink:href="#DejaVuSans-30" x="63.623047"/>
       <use xlink:href="#DejaVuSans-30" x="127.246094"/>
      </g>
     </g>
    </g>
    <g id="ytick_3">
     <g id="line2d_9">
      <g>
       <use xlink:href="#m8335814b1f" x="57.6" y="216.155429" style="stroke: #000000; stroke-width: 0.8"/>
      </g>
     </g>
     <g id="text_10">
      <!-- 1000 -->
      <g transform="translate(25.15 219.954647)scale(0.1 -0.1)">
       <use xlink:href="#DejaVuSans-31"/>
       <use xlink:href="#DejaVuSans-30" x="63.623047"/>
       <use xlink:href="#DejaVuSans-30" x="127.246094"/>
       <use xlink:href="#DejaVuSans-30" x="190.869141"/>
      </g>
     </g>
    </g>
    <g id="ytick_4">
     <g id="line2d_10">
      <g>
       <use xlink:href="#m8335814b1f" x="57.6" y="170.441143" style="stroke: #000000; stroke-width: 0.8"/>
      </g>
     </g>
     <g id="text_11">
      <!-- 1500 -->
      <g transform="translate(25.15 174.240362)scale(0.1 -0.1)">
       <use xlink:href="#DejaVuSans-31"/>
       <use xlink:href="#DejaVuSans-35" x="63.623047"/>
       <use xlink:href="#DejaVuSans-30" x="127.246094"/>
       <use xlink:href="#DejaVuSans-30" x="190.869141"/>
      </g>
     </g>
    </g>
    <g id="ytick_5">
     <g id="line2d_11">
      <g>
       <use xlink:href="#m8335814b1f" x="57.6" y="124.726857" style="stroke: #000000; stroke-width: 0.8"/>
      </g>
     </g>
     <g id="text_12">
      <!-- 2000 -->
      <g transform="translate(25.15 128.526076)scale(0.1 -0.1)">
       <use xlink:href="#DejaVuSans-32"/>
       <use xlink:href="#DejaVuSans-30" x="63.623047"/>
       <use xlink:href="#DejaVuSans-30" x="127.246094"/>
       <use xlink:href="#DejaVuSans-30" x="190.869141"/>
      </g>
     </g>
    </g>
    <g id="ytick_6">
     <g id="line2d_12">
      <g>
       <use xlink:href="#m8335814b1f" x="57.6" y="79.012571" style="stroke: #000000; stroke-width: 0.8"/>
      </g>
     </g>
     <g id="text_13">
      <!-- 2500 -->
      <g transform="translate(25.15 82.81179)scale(0.1 -0.1)">
       <use xlink:href="#DejaVuSans-32"/>
       <use xlink:href="#DejaVuSans-35" x="63.623047"/>
       <use xlink:href="#DejaVuSans-30" x="127.246094"/>
       <use xlink:href="#DejaVuSans-30" x="190.869141"/>
      </g>
     </g>
    </g>
    <g id="text_14">
     <!-- number -->
     <g transform="translate(19.070312 194.042062)rotate(-90)scale(0.1 -0.1)">
      <defs>
       <path id="DejaVuSans-6e" d="M 3513 2113 
L 3513 0 
L 2938 0 
L 2938 2094 
Q 2938 2591 2744 2837 
Q 2550 3084 2163 3084 
Q 1697 3084 1428 2787 
Q 1159 2491 1159 1978 
L 1159 0 
L 581 0 
L 581 3500 
L 1159 3500 
L 1159 2956 
Q 1366 3272 1645 3428 
Q 1925 3584 2291 3584 
Q 2894 3584 3203 3211 
Q 3513 2838 3513 2113 
z
" transform="scale(0.015625)"/>
       <path id="DejaVuSans-75" d="M 544 1381 
L 544 3500 
L 1119 3500 
L 1119 1403 
Q 1119 906 1312 657 
Q 1506 409 1894 409 
Q 2359 409 2629 706 
Q 2900 1003 2900 1516 
L 2900 3500 
L 3475 3500 
L 3475 0 
L 2900 0 
L 2900 538 
Q 2691 219 2414 64 
Q 2138 -91 1772 -91 
Q 1169 -91 856 284 
Q 544 659 544 1381 
z
M 1991 3584 
L 1991 3584 
z
" transform="scale(0.015625)"/>
       <path id="DejaVuSans-6d" d="M 3328 2828 
Q 3544 3216 3844 3400 
Q 4144 3584 4550 3584 
Q 5097 3584 5394 3201 
Q 5691 2819 5691 2113 
L 5691 0 
L 5113 0 
L 5113 2094 
Q 5113 2597 4934 2840 
Q 4756 3084 4391 3084 
Q 3944 3084 3684 2787 
Q 3425 2491 3425 1978 
L 3425 0 
L 2847 0 
L 2847 2094 
Q 2847 2600 2669 2842 
Q 2491 3084 2119 3084 
Q 1678 3084 1418 2786 
Q 1159 2488 1159 1978 
L 1159 0 
L 581 0 
L 581 3500 
L 1159 3500 
L 1159 2956 
Q 1356 3278 1631 3431 
Q 1906 3584 2284 3584 
Q 2666 3584 2933 3390 
Q 3200 3197 3328 2828 
z
" transform="scale(0.015625)"/>
       <path id="DejaVuSans-62" d="M 3116 1747 
Q 3116 2381 2855 2742 
Q 2594 3103 2138 3103 
Q 1681 3103 1420 2742 
Q 1159 2381 1159 1747 
Q 1159 1113 1420 752 
Q 1681 391 2138 391 
Q 2594 391 2855 752 
Q 3116 1113 3116 1747 
z
M 1159 2969 
Q 1341 3281 1617 3432 
Q 1894 3584 2278 3584 
Q 2916 3584 3314 3078 
Q 3713 2572 3713 1747 
Q 3713 922 3314 415 
Q 2916 -91 2278 -91 
Q 1894 -91 1617 61 
Q 1341 213 1159 525 
L 1159 0 
L 581 0 
L 581 4863 
L 1159 4863 
L 1159 2969 
z
" transform="scale(0.015625)"/>
       <path id="DejaVuSans-72" d="M 2631 2963 
Q 2534 3019 2420 3045 
Q 2306 3072 2169 3072 
Q 1681 3072 1420 2755 
Q 1159 2438 1159 1844 
L 1159 0 
L 581 0 
L 581 3500 
L 1159 3500 
L 1159 2956 
Q 1341 3275 1631 3429 
Q 1922 3584 2338 3584 
Q 2397 3584 2469 3576 
Q 2541 3569 2628 3553 
L 2631 2963 
z
" transform="scale(0.015625)"/>
      </defs>
      <use xlink:href="#DejaVuSans-6e"/>
      <use xlink:href="#DejaVuSans-75" x="63.378906"/>
      <use xlink:href="#DejaVuSans-6d" x="126.757812"/>
      <use xlink:href="#DejaVuSans-62" x="224.169922"/>
      <use xlink:href="#DejaVuSans-65" x="287.646484"/>
      <use xlink:href="#DejaVuSans-72" x="349.169922"/>
     </g>
    </g>
   </g>
   <g id="patch_117">
    <path d="M 57.6 307.584 
L 57.6 41.472 
" style="fill: none; stroke: #000000; stroke-width: 0.8; stroke-linejoin: miter; stroke-linecap: square"/>
   </g>
   <g id="patch_118">
    <path d="M 414.72 307.584 
L 414.72 41.472 
" style="fill: none; stroke: #000000; stroke-width: 0.8; stroke-linejoin: miter; stroke-linecap: square"/>
   </g>
   <g id="patch_119">
    <path d="M 57.6 307.584 
L 414.72 307.584 
" style="fill: none; stroke: #000000; stroke-width: 0.8; stroke-linejoin: miter; stroke-linecap: square"/>
   </g>
   <g id="patch_120">
    <path d="M 57.6 41.472 
L 414.72 41.472 
" style="fill: none; stroke: #000000; stroke-width: 0.8; stroke-linejoin: miter; stroke-linecap: square"/>
   </g>
   <g id="text_15">
    <!-- height -->
    <g transform="translate(217.035 35.472)scale(0.12 -0.12)">
     <defs>
      <path id="DejaVuSans-68" d="M 3513 2113 
L 3513 0 
L 2938 0 
L 2938 2094 
Q 2938 2591 2744 2837 
Q 2550 3084 2163 3084 
Q 1697 3084 1428 2787 
Q 1159 2491 1159 1978 
L 1159 0 
L 581 0 
L 581 4863 
L 1159 4863 
L 1159 2956 
Q 1366 3272 1645 3428 
Q 1925 3584 2291 3584 
Q 2894 3584 3203 3211 
Q 3513 2838 3513 2113 
z
" transform="scale(0.015625)"/>
      <path id="DejaVuSans-67" d="M 2906 1791 
Q 2906 2416 2648 2759 
Q 2391 3103 1925 3103 
Q 1463 3103 1205 2759 
Q 947 2416 947 1791 
Q 947 1169 1205 825 
Q 1463 481 1925 481 
Q 2391 481 2648 825 
Q 2906 1169 2906 1791 
z
M 3481 434 
Q 3481 -459 3084 -895 
Q 2688 -1331 1869 -1331 
Q 1566 -1331 1297 -1286 
Q 1028 -1241 775 -1147 
L 775 -588 
Q 1028 -725 1275 -790 
Q 1522 -856 1778 -856 
Q 2344 -856 2625 -561 
Q 2906 -266 2906 331 
L 2906 616 
Q 2728 306 2450 153 
Q 2172 0 1784 0 
Q 1141 0 747 490 
Q 353 981 353 1791 
Q 353 2603 747 3093 
Q 1141 3584 1784 3584 
Q 2172 3584 2450 3431 
Q 2728 3278 2906 2969 
L 2906 3500 
L 3481 3500 
L 3481 434 
z
" transform="scale(0.015625)"/>
      <path id="DejaVuSans-74" d="M 1172 4494 
L 1172 3500 
L 2356 3500 
L 2356 3053 
L 1172 3053 
L 1172 1153 
Q 1172 725 1289 603 
Q 1406 481 1766 481 
L 2356 481 
L 2356 0 
L 1766 0 
Q 1100 0 847 248 
Q 594 497 594 1153 
L 594 3053 
L 172 3053 
L 172 3500 
L 594 3500 
L 594 4494 
L 1172 4494 
z
" transform="scale(0.015625)"/>
     </defs>
     <use xlink:href="#DejaVuSans-68"/>
     <use xlink:href="#DejaVuSans-65" x="63.378906"/>
     <use xlink:href="#DejaVuSans-69" x="124.902344"/>
     <use xlink:href="#DejaVuSans-67" x="152.685547"/>
     <use xlink:href="#DejaVuSans-68" x="216.162109"/>
     <use xlink:href="#DejaVuSans-74" x="279.541016"/>
    </g>
   </g>
  </g>
 </g>
 <defs>
  <clipPath id="pd2100f0e53">
   <rect x="57.6" y="41.472" width="357.12" height="266.112"/>
  </clipPath>
 </defs>
</svg>
